<svg width="30" height="30" viewBox="0 0 30 30" fill="none" xmlns="http://www.w3.org/2000/svg">
<g clip-path="url(#clip0)">
<path d="M27.5 4.99998C27.5 3.62121 26.3781 2.49996 25 2.49996H21.25V0.624961C21.25 0.279551 20.9705 0 20.625 0C20.2795 0 20 0.279551 20 0.62502V2.50002H8.74998V0.62502C8.74998 0.279551 8.47049 0 8.12502 0C7.77955 0 7.5 0.279551 7.5 0.62502V2.50002H2.50002C1.12184 2.50002 0 3.62121 0 4.99998V25C0 26.3787 1.12184 27.5 2.50002 27.5H20.6238V27.4997L20.6251 27.5C20.7874 27.5 20.9473 27.4365 21.067 27.3169L27.317 21.0669C27.4362 20.9472 27.4757 20.7875 27.4758 20.6249H27.5001V4.99998H27.5Z" fill="#303C42"/>
<path d="M2.50004 3.75H7.50002V4.99998C6.81031 4.99998 6.25004 5.5609 6.25004 6.24996C6.25004 6.93902 6.81031 7.5 7.50002 7.5C8.18973 7.5 8.75 6.93908 8.75 6.25002V3.75H20V4.99998C19.3103 4.99998 18.75 5.5609 18.75 6.24996C18.75 6.93902 19.3104 7.5 20 7.5C20.6896 7.5 21.25 6.93908 21.25 6.25002V3.75H25C25.6897 3.75 26.25 4.31092 26.25 4.99998V8.74998H1.25V4.99998C1.25 4.31092 1.81033 3.75 2.50004 3.75Z" fill="#D32F2F"/>
<path opacity="0.2" d="M20 3.75H8.75V4.37502H20V3.75Z" fill="white"/>
<path opacity="0.2" d="M2.5001 4.37502H7.50008V3.75H2.5001C1.8104 3.75 1.25012 4.31092 1.25012 4.99998V5.625C1.25006 4.93594 1.8104 4.37502 2.5001 4.37502Z" fill="white"/>
<path opacity="0.2" d="M25.0001 3.75H21.2501V4.37502H25.0001C25.6898 4.37502 26.2501 4.93594 26.2501 5.625V4.99998C26.2501 4.31092 25.6898 3.75 25.0001 3.75Z" fill="white"/>
<path d="M20.0001 22.5V26.25H2.5001C1.8104 26.25 1.25012 25.6891 1.25012 25V10H26.2501V20H22.5001C21.1219 20 20.0001 21.1212 20.0001 22.5Z" fill="white"/>
<path d="M21.25 25.3662V22.5C21.25 21.8109 21.8103 21.25 22.5 21.25H25.3662L21.25 25.3662Z" fill="#E6E6E6"/>
<path d="M20 26.25V22.5C20 21.1212 21.1218 20 22.5 20H26.25V10H1.25L17.5 26.25H20Z" fill="url(#paint0_linear)"/>
<path d="M11.25 13.75C9.87184 13.75 8.75 14.8712 8.75 16.25C8.75 16.5955 9.02955 16.875 9.37502 16.875C9.72049 16.875 10 16.5955 10 16.25C10 15.561 10.5604 15 11.25 15C11.9397 15 12.5 15.561 12.5 16.25C12.5 16.9391 11.9397 17.5 11.25 17.5C10.9046 17.5 10.625 17.7795 10.625 18.125C10.625 18.4705 10.9046 18.75 11.25 18.75C11.9397 18.75 12.5 19.3109 12.5 19.9999C12.5 20.689 11.9397 21.2499 11.25 21.2499C10.5603 21.2499 10 20.689 10 19.9999C10 19.6545 9.72049 19.3749 9.37502 19.3749C9.02955 19.3749 8.75 19.6545 8.75 19.9999C8.75 21.3788 9.87184 22.5 11.25 22.5C12.6282 22.5 13.75 21.3788 13.75 19.9999C13.75 19.2541 13.4217 18.5833 12.9017 18.1249C13.4217 17.6666 13.75 16.9958 13.75 16.25C13.75 14.8712 12.6282 13.75 11.25 13.75Z" fill="#303C42"/>
<path d="M16.8757 13.75C16.8757 13.75 16.8757 13.75 16.8744 13.75L15.6269 13.7512C15.2814 13.7518 15.0018 14.0314 15.0018 14.3768C15.0018 14.7217 15.2814 15.0012 15.6269 15.0012C15.6269 15.0012 15.6269 15.0012 15.6281 15.0012L16.2506 15.0006V21.875C16.2506 22.2205 16.5302 22.5001 16.8757 22.5001C17.2211 22.5001 17.5007 22.2205 17.5007 21.875V14.375C17.5007 14.209 17.4348 14.0503 17.3176 13.9331C17.2004 13.8159 17.0417 13.75 16.8757 13.75Z" fill="#303C42"/>
<path d="M23.1251 30C26.922 30 30.0001 26.9219 30.0001 23.125C30.0001 19.328 26.922 16.25 23.1251 16.25C19.3282 16.25 16.2501 19.328 16.2501 23.125C16.2501 26.9219 19.3282 30 23.1251 30Z" fill="#303C42"/>
<path d="M23.125 28.75C26.2316 28.75 28.75 26.2316 28.75 23.125C28.75 20.0184 26.2316 17.5 23.125 17.5C20.0184 17.5 17.5 20.0184 17.5 23.125C17.5 26.2316 20.0184 28.75 23.125 28.75Z" fill="#7CB342"/>
<path d="M25.6249 22.5H23.7499V20.625C23.7499 20.2796 23.4704 20 23.1249 20C22.7794 20 22.4999 20.2796 22.4999 20.625V22.5H20.6249C20.2794 22.5 19.9999 22.7796 19.9999 23.125C19.9999 23.4705 20.2794 23.7501 20.6249 23.7501H22.4999V25.6251C22.4999 25.9705 22.7794 26.2501 23.1249 26.2501C23.4704 26.2501 23.7499 25.9705 23.7499 25.6251V23.7501H25.6249C25.9704 23.7501 26.25 23.4705 26.25 23.125C26.25 22.7796 25.9704 22.5 25.6249 22.5Z" fill="#303C42"/>
<path d="M27.5 17.8259V4.99998C27.5 3.62121 26.3781 2.49996 25 2.49996H21.25V0.624961C21.25 0.279551 20.9705 0 20.625 0C20.2795 0 20 0.279551 20 0.62502V2.50002H8.74998V0.62502C8.74998 0.279551 8.47049 0 8.12502 0C7.77955 0 7.5 0.279551 7.5 0.62502V2.50002H2.50002C1.12184 2.50002 0 3.62121 0 4.99998V25C0 26.3787 1.12184 27.5 2.50002 27.5H17.8259C19.0879 29.0259 20.9947 30 23.125 30C26.9159 30 30 26.9159 30 23.125C30 20.9947 29.0259 19.0879 27.5 17.8259Z" fill="url(#paint1_linear)"/>
</g>
<defs>
<linearGradient id="paint0_linear" x1="7.50013" y1="3.75123" x2="25.0001" y2="21.2512" gradientUnits="userSpaceOnUse">
<stop stop-opacity="0.1"/>
<stop offset="1" stop-opacity="0"/>
</linearGradient>
<linearGradient id="paint1_linear" x1="-1.53537" y1="7.74011" x2="30.8442" y2="22.8393" gradientUnits="userSpaceOnUse">
<stop stop-color="white" stop-opacity="0.2"/>
<stop offset="1" stop-color="white" stop-opacity="0"/>
</linearGradient>
<clipPath id="clip0">
<rect width="30" height="30" fill="white"/>
</clipPath>
</defs>
</svg>
