<svg width="23" height="25" viewBox="0 0 23 25" fill="none" xmlns="http://www.w3.org/2000/svg">
<path d="M6.61871 14.4707C6.84889 14.4707 7.06528 14.5603 7.22804 14.7231C7.32009 14.8151 7.44072 14.8612 7.5614 14.8612C7.68203 14.8612 7.80272 14.8151 7.89476 14.7231C8.07892 14.539 8.07892 14.2405 7.89476 14.0564C7.55392 13.7155 7.10075 13.5278 6.61877 13.5278C6.13679 13.5278 5.68363 13.7155 5.34278 14.0564C5.15863 14.2405 5.15863 14.5389 5.34278 14.7231C5.52693 14.9072 5.82541 14.9072 6.00945 14.7231C6.17215 14.5603 6.38854 14.4707 6.61871 14.4707Z" fill="#929292"/>
<path d="M15.1052 14.056C14.9211 14.2401 14.9211 14.5386 15.1052 14.7227C15.2893 14.9068 15.5878 14.9068 15.7719 14.7227C16.1079 14.3867 16.6546 14.3868 16.9906 14.7227C17.0826 14.8148 17.2032 14.8608 17.3239 14.8608C17.4446 14.8608 17.5652 14.8148 17.6573 14.7227C17.8414 14.5386 17.8414 14.2402 17.6573 14.056C16.9538 13.3525 15.8089 13.3524 15.1052 14.056Z" fill="#929292"/>
<path d="M16.3787 18.7064C13.6886 21.3965 9.31155 21.3965 6.62138 18.7064C6.43729 18.5223 6.13881 18.5223 5.95472 18.7064C5.77057 18.8905 5.77057 19.1891 5.95472 19.3732C7.48357 20.902 9.49182 21.6664 11.5001 21.6664C13.5084 21.6664 15.5166 20.902 17.0455 19.3732C17.2296 19.1891 17.2296 18.8906 17.0455 18.7064C16.8614 18.5223 16.5628 18.5223 16.3787 18.7064Z" fill="#929292"/>
<path d="M22.6236 14.9785C22.6236 13.6979 21.6978 12.6301 20.4806 12.4074V4.52075C20.4806 3.49763 19.9716 2.5491 19.1191 1.98344C18.3183 1.4522 17.3243 1.33163 16.4254 1.64837L13.4656 0.643752C11.1913 -0.128277 8.79731 -0.207477 6.5425 0.414636C3.59063 1.22909 1.89831 2.95135 1.63707 5.3995C1.4059 5.7044 1.22221 6.04684 1.0974 6.41632L0.867815 7.09583C0.744594 7.46066 0.880426 7.84405 1.20595 8.04983C1.53141 8.25561 1.93608 8.21401 2.21281 7.94618C2.30733 7.85466 2.4107 7.77758 2.51948 7.71311V12.4074C1.30224 12.6301 0.376465 13.6978 0.376465 14.9785C0.376465 16.3103 1.37773 17.412 2.66692 17.5722C2.99067 19.3598 3.84143 21.0089 5.14229 22.3285C6.84069 24.0513 9.09849 25.0001 11.5 25.0001C11.5003 25.0001 11.5006 25.0001 11.5009 25.0001C13.8994 24.9998 16.1542 24.0657 17.8502 22.3698C19.175 21.045 20.0349 19.3792 20.348 17.5703C21.63 17.4035 22.6236 16.3051 22.6236 14.9785ZM18.5978 2.76915C19.1952 3.16544 19.5377 3.80388 19.5377 4.52075V10.69C18.0744 10.4626 16.9509 9.19418 16.9509 7.66815L16.9119 2.48475C17.4876 2.33301 18.0879 2.43083 18.5978 2.76915ZM1.89907 6.98923L1.99071 6.7181C2.23073 6.00771 2.76374 5.43097 3.45303 5.13585C4.14227 4.84074 4.9275 4.85299 5.60724 5.16962C7.03486 5.83451 8.76071 5.47505 9.80411 4.29552L9.92091 4.16346C10.0935 3.96847 10.0752 3.67052 9.88019 3.49804C9.68513 3.32555 9.38719 3.34376 9.2147 3.53876L9.0979 3.67082C8.329 4.54002 7.05725 4.80485 6.00531 4.31491C5.08289 3.88526 4.01728 3.86858 3.0819 4.26912C2.99674 4.3056 2.91395 4.34632 2.83245 4.38893C3.38043 2.92802 4.70669 1.89924 6.79337 1.3235C8.86537 0.751769 11.0678 0.825489 13.1627 1.53653L15.969 2.48911L16.0058 4.92506C14.7562 6.62405 12.9338 7.77416 10.857 8.16964C8.73042 8.57454 6.56101 8.14606 4.74823 6.96312C3.86247 6.38521 2.74571 6.4099 1.89907 6.98923ZM1.31933 14.9785C1.31933 14.2205 1.82665 13.5791 2.51948 13.375V15.9303C2.51948 16.151 2.52743 16.3706 2.54293 16.5886C1.8382 16.3922 1.31933 15.745 1.31933 14.9785ZM17.1836 21.703C15.6657 23.2209 13.6475 24.0569 11.5009 24.0571C11.5005 24.0571 11.5004 24.0571 11.5 24.0571C9.35307 24.0571 7.33345 23.208 5.81373 21.6665C4.29743 20.1283 3.46234 18.0912 3.46234 15.9302V7.49083C3.72935 7.51075 3.99429 7.59714 4.23284 7.75277C6.25092 9.06966 8.66595 9.54669 11.0333 9.09588C12.9549 8.72993 14.6811 7.78395 16.008 6.3888V7.66809C16.008 9.71475 17.5529 11.4064 19.5377 11.6405V16.0194C19.5377 18.1664 18.7017 20.1849 17.1836 21.703ZM20.4624 16.5871C20.474 16.3989 20.4806 16.2097 20.4806 16.0195V13.375C21.1734 13.5791 21.6807 14.2205 21.6807 14.9785C21.6807 15.7431 21.1645 16.389 20.4624 16.5871Z" fill="#929292"/>
</svg>
