<svg width="120" height="120" viewBox="0 0 120 120" fill="none" xmlns="http://www.w3.org/2000/svg">
<path d="M3.61922 110.255C1.7824 111.161 0.753784 113.12 1.07217 115.128C1.39055 117.16 2.93347 118.727 4.96622 119.045C6.46017 119.29 8.07656 119.388 9.71745 119.388C14.1748 119.388 22.6731 118.482 31.0001 112.557C39.8413 117.429 49.8336 120 59.9973 120C76.0388 120 91.1007 113.756 102.44 102.42C125.853 79.0124 125.853 40.9631 102.44 17.5556C91.1007 6.24362 76.0388 0 59.9973 0C43.9557 0 28.8938 6.24362 17.5545 17.5801C-4.46278 39.5919 -5.90775 74.8745 14.0034 98.5513C11.2604 104.281 7.75818 108.223 3.61922 110.255ZM20.9833 21.008C31.3919 10.6019 45.2538 4.84799 59.9973 4.84799C74.7408 4.84799 88.5782 10.5774 99.0113 21.008C120.514 42.5056 120.514 77.4944 99.0113 99.0165C88.6027 109.423 74.7408 115.176 59.9973 115.176C50.1519 115.176 40.5025 112.557 32.0532 107.586C31.6613 107.366 31.245 107.243 30.8286 107.243C30.2898 107.243 29.7755 107.415 29.3347 107.758C21.718 113.658 13.7585 114.54 9.69296 114.54C8.5174 114.54 7.36633 114.466 6.26424 114.32C11.5543 111.553 15.8402 106.435 19.0485 99.1145C19.4159 98.2575 19.2689 97.2536 18.6321 96.5436C-0.617706 74.7766 0.410912 41.5997 20.9833 21.008Z" fill="black" fill-opacity="0.7"/>
</svg>
