<svg width="122" height="122" viewBox="0 0 122 122" fill="none" xmlns="http://www.w3.org/2000/svg">
<path d="M4.57499 111.165L4.57515 111.165C8.67363 109.153 12.1526 105.251 14.8853 99.5662C-5.01564 75.8501 -3.55489 40.5426 18.4838 18.5094C29.8419 7.15417 44.9292 0.9 60.9973 0.9C77.0654 0.9 92.1526 7.15416 103.511 18.4848L103.511 18.4849C126.963 41.9314 126.963 80.0441 103.511 103.491C92.1527 114.846 77.0654 121.1 60.9973 121.1C50.8378 121.1 40.8493 118.535 32.0068 113.674C23.6736 119.583 15.1781 120.488 10.7175 120.488C9.07289 120.488 7.45082 120.39 5.95005 120.144M4.57499 111.165L5.96622 120.045M4.57499 111.165C2.69961 112.09 1.6481 114.091 1.97337 116.143M4.57499 111.165L2.07217 116.128M5.95005 120.144L5.96622 120.045M5.95005 120.144C5.95028 120.144 5.95052 120.144 5.95075 120.144L5.96622 120.045M5.95005 120.144C3.87401 119.818 2.29833 118.217 1.97337 116.143M5.96622 120.045C3.93347 119.727 2.39055 118.16 2.07217 116.128M1.97337 116.143C1.97338 116.143 1.97339 116.143 1.9734 116.143L2.07217 116.128M1.97337 116.143L2.07217 116.128M33.1039 108.5L33.1022 108.499C32.6979 108.272 32.2648 108.143 31.8286 108.143C31.2679 108.143 30.7319 108.322 30.2734 108.679C22.6803 114.561 14.7453 115.44 10.693 115.44C9.63194 115.44 8.59126 115.38 7.58908 115.26C12.7771 112.447 16.9821 107.361 20.1401 100.155L20.1404 100.154C20.5227 99.2621 20.3701 98.2167 19.7067 97.4769C0.492297 75.7495 1.51905 42.6329 22.054 22.0786C32.4439 11.6913 46.2803 5.94799 60.9973 5.94799C75.7143 5.94799 89.5262 11.6669 99.9406 22.0787C121.405 43.5373 121.405 78.4627 99.9406 99.9458C89.5507 110.333 75.7143 116.076 60.9973 116.076C51.1697 116.076 41.5378 113.461 33.1039 108.5Z" fill="black" fill-opacity="0.7" stroke="black" stroke-width="0.2"/>
</svg>
