<svg width="30" height="27" viewBox="0 0 30 27" fill="none" xmlns="http://www.w3.org/2000/svg">
<path d="M29.861 10.3795C29.8008 10.7209 29.5173 10.9967 29.1416 11.0796C29.0786 11.0935 23.9865 12.2353 20.2453 14.2907L16.1603 17.9384C13.8604 21.2767 12.5784 25.8239 12.5628 25.8799C12.47 26.2154 12.1609 26.4684 11.7786 26.5222C11.3963 26.576 11.0151 26.42 10.8111 26.1263L9.57772 24.3506C8.87847 24.9134 7.82671 25.1805 6.96735 24.9779L6.89708 24.9612C3.85165 24.1284 1.9177 22.4019 0.984818 19.6832L0.966185 19.6204C0.752338 18.773 1.06672 17.8216 1.76712 17.1962C1.81977 17.1492 1.87502 17.1038 1.93121 17.0613L1.95244 17.0458C4.26894 15.3933 6.5247 13.6454 8.68773 11.829C6.74946 10.8699 5.06453 10.393 3.77697 10.4442C3.56254 10.4528 3.36682 10.3357 3.29395 10.1554C3.22108 9.97513 3.28789 9.77352 3.45905 9.65772L4.91308 8.67385L3.26326 7.26083C3.12163 7.13949 3.07469 6.95452 3.14388 6.79062C3.16901 6.73105 3.20758 6.67863 3.25596 6.63543C3.34097 6.55948 3.45616 6.51254 3.58103 6.50764C5.03817 6.44981 6.64127 6.72898 8.3722 7.33865C7.6892 5.7934 7.37655 4.36233 7.44134 3.0615C7.4469 2.95003 7.49955 2.84713 7.58455 2.77124C7.63294 2.72804 7.6918 2.69361 7.75846 2.67118C7.94205 2.60941 8.14932 2.65119 8.28517 2.77762L9.86805 4.2506L10.97 2.95235C11.0997 2.79974 11.3255 2.73991 11.5274 2.80515C11.7293 2.87021 11.8603 3.045 11.8508 3.23635C11.7936 4.3858 12.3278 5.89005 13.4022 7.62053C15.438 5.68863 17.3959 3.67484 19.2459 1.60748L19.2635 1.58814C19.3109 1.53824 19.3616 1.48911 19.4141 1.44204C20.1145 0.816771 21.1804 0.535988 22.1297 0.726767L22.2004 0.743465C25.2459 1.57666 27.1798 3.30309 28.1125 6.02164C28.1125 6.02164 28.6205 7.38959 27.4285 8.41459L29.4177 9.51556C29.7465 9.69795 29.9213 10.0382 29.861 10.3795ZM11.3065 23.5796C11.4976 23.0446 11.7332 22.425 12.0122 21.7591C11.6312 22.1589 11.2535 22.5611 10.8802 22.9658L11.3065 23.5796ZM10.3725 12.7715C8.06461 14.7271 5.64996 16.6066 3.16677 18.3786C3.15363 18.3889 3.14055 18.3998 3.12784 18.4111C2.90143 18.6132 2.74724 18.9508 2.83751 19.2168C3.58847 21.3731 5.00416 22.6369 7.41967 23.3074C7.69288 23.3888 8.08555 23.3217 8.35855 23.0135C8.50993 22.8444 8.66217 22.6758 8.81492 22.5074L9.1072 22.1873C10.8699 20.2607 12.7215 18.3841 14.6392 16.5804L10.3725 12.7715ZM26.2598 6.48811C25.5091 4.33203 24.0935 3.06801 21.6781 2.39748C21.3822 2.34017 21.0016 2.45467 20.7752 2.65673C20.7626 2.66815 20.7503 2.67956 20.739 2.69123C18.7555 4.90727 16.6501 7.06302 14.4583 9.12413L18.7248 12.9329C20.7455 11.2204 22.8478 9.56752 25.0058 7.99403L25.3639 7.73349C25.5524 7.59713 25.7415 7.46109 25.9311 7.32601C25.9442 7.31589 25.9571 7.30506 25.9697 7.29371C26.1959 7.09178 26.3429 6.74665 26.2598 6.48811ZM25.8772 9.57739C25.424 9.91072 24.9732 10.2477 24.5252 10.5881C25.2713 10.339 25.9655 10.1287 26.5648 9.95804L25.8772 9.57739Z" fill="black" fill-opacity="0.8"/>
</svg>
