<svg width="25" height="23" viewBox="0 0 25 23" fill="none" xmlns="http://www.w3.org/2000/svg">
<path d="M24.8147 9.40365L24.8147 9.4036L21.6224 7.33146V0.4054C21.6224 0.181511 21.437 1.64958e-08 21.2084 1.64958e-08H3.79107C3.56241 1.64958e-08 3.37702 0.181511 3.37702 0.4054V7.33195L0.185275 9.4036L0.18533 9.4037C0.0737015 9.4763 0 9.6004 0 9.74148V22.2959C0 22.5198 0.185386 22.7013 0.414054 22.7013H24.5859C24.8146 22.7013 25 22.5198 25 22.2959V9.74148C25 9.6004 24.9263 9.4763 24.8147 9.40365ZM3.37702 10.8214L2.07827 10.1469H3.37702V10.8214ZM0.828107 10.4154L10.35 15.3608L0.828107 21.5405V10.4154ZM12.4998 14.9381L23.2121 21.8905H1.78766L12.4998 14.9381ZM14.6499 15.3608L24.1718 10.4154V21.5407L14.6499 15.3608ZM21.6224 10.1469H22.9218L21.6224 10.8217V10.1469ZM23.2121 9.33608H21.6224V8.30421L23.2121 9.33608ZM20.7943 0.810799V11.2518L13.8643 14.851L12.7286 14.1139C12.5899 14.0239 12.4097 14.0239 12.2711 14.1139L11.1354 14.8509L4.20513 11.2515V0.810799H20.7943ZM3.37702 9.33608H1.78805L3.37702 8.30475V9.33608Z" fill="black"/>
<path d="M12.4996 10.6618H15.7985C16.0272 10.6618 16.2125 10.4802 16.2125 10.2564C16.2125 10.0325 16.0272 9.85096 15.7985 9.85096H12.4996C10.909 9.85096 9.61485 8.5839 9.61485 7.02646V6.90684C9.61485 5.3494 10.909 4.08234 12.4996 4.08234C14.0903 4.08234 15.3844 5.3494 15.3844 6.90684V7.20591C15.3844 7.54305 15.1043 7.81737 14.7599 7.81737C14.4156 7.81737 14.1354 7.5431 14.1354 7.20591V6.63771C14.1354 5.6721 13.3331 4.88649 12.3469 4.88649C11.3607 4.88649 10.5583 5.67204 10.5583 6.63771C10.5583 7.60331 11.3607 8.38887 12.3469 8.38887C12.7979 8.38887 13.2101 8.22428 13.525 7.95363C13.7814 8.35812 14.2389 8.62811 14.7599 8.62811C15.5609 8.62811 16.2125 7.99012 16.2125 7.20586V6.90678C16.2125 4.90227 14.5469 3.27148 12.4996 3.27148C10.4523 3.27148 8.78674 4.90227 8.78674 6.90678V7.0264C8.78674 9.03097 10.4523 10.6618 12.4996 10.6618ZM12.3469 7.57807C11.8173 7.57807 11.3864 7.15624 11.3864 6.63771C11.3864 6.11917 11.8173 5.69729 12.3469 5.69729C12.8764 5.69729 13.3073 6.11917 13.3073 6.63771C13.3073 7.15624 12.8765 7.57807 12.3469 7.57807Z" fill="black"/>
</svg>
