<svg width="25" height="25" viewBox="0 0 25 25" fill="none" xmlns="http://www.w3.org/2000/svg">
<g clip-path="url(#clip0)">
<path d="M22.9167 4.16665C22.9167 3.01768 21.9818 2.0833 20.8333 2.0833H17.7083V0.520801C17.7083 0.232959 17.4754 0 17.1875 0C16.8996 0 16.6667 0.232959 16.6667 0.52085V2.08335H7.29165V0.52085C7.29165 0.232959 7.05874 0 6.77085 0C6.48296 0 6.25 0.232959 6.25 0.52085V2.08335H2.08335C0.934863 2.08335 0 3.01768 0 4.16665V20.8333C0 21.9823 0.934863 22.9167 2.08335 22.9167H17.1865V22.9165L17.1875 22.9167C17.3229 22.9167 17.4561 22.8638 17.5558 22.7641L22.7642 17.5557C22.8635 17.456 22.8964 17.3229 22.8965 17.1875H22.9167V4.16665H22.9167Z" fill="#303C42"/>
<path d="M2.08345 3.125H6.2501V4.16665C5.67534 4.16665 5.20845 4.63408 5.20845 5.2083C5.20845 5.78252 5.67534 6.25 6.2501 6.25C6.82485 6.25 7.29175 5.78257 7.29175 5.20835V3.125H16.6667V4.16665C16.092 4.16665 15.6251 4.63408 15.6251 5.2083C15.6251 5.78252 16.092 6.25 16.6667 6.25C17.2415 6.25 17.7084 5.78257 17.7084 5.20835V3.125H20.8334C21.4082 3.125 21.8751 3.59243 21.8751 4.16665V7.29165H1.04175V4.16665C1.04175 3.59243 1.50869 3.125 2.08345 3.125Z" fill="#D32F2F"/>
<path opacity="0.2" d="M16.6668 3.125H7.29175V3.64585H16.6668V3.125Z" fill="white"/>
<path opacity="0.2" d="M2.0834 3.64585H6.25005V3.125H2.0834C1.50864 3.125 1.04175 3.59243 1.04175 4.16665V4.6875C1.0417 4.11328 1.50864 3.64585 2.0834 3.64585Z" fill="white"/>
<path opacity="0.2" d="M20.8335 3.125H17.7085V3.64585H20.8335C21.4083 3.64585 21.8751 4.11328 21.8751 4.6875V4.16665C21.8751 3.59243 21.4083 3.125 20.8335 3.125Z" fill="white"/>
<path d="M16.6667 18.7497V21.8747H2.0834C1.50864 21.8747 1.04175 21.4072 1.04175 20.833V8.33301H21.875V16.6664H18.75C17.6016 16.6663 16.6667 17.6007 16.6667 18.7497Z" fill="white"/>
<path d="M17.7083 21.1382V18.7497C17.7083 18.1754 18.1752 17.708 18.7499 17.708H21.1384L17.7083 21.1382Z" fill="#E6E6E6"/>
<path d="M16.6667 21.8747V18.7497C16.6667 17.6007 17.6016 16.6663 18.7501 16.6663H21.8751V8.33301H1.04175L14.5834 21.8747H16.6667Z" fill="url(#paint0_linear)"/>
<path d="M9.3751 11.458C8.22661 11.458 7.29175 12.3923 7.29175 13.5414C7.29175 13.8292 7.52471 14.0622 7.8126 14.0622C8.10049 14.0622 8.33345 13.8292 8.33345 13.5414C8.33345 12.9671 8.80039 12.4997 9.3751 12.4997C9.94985 12.4997 10.4167 12.9671 10.4167 13.5414C10.4167 14.1156 9.94981 14.583 9.3751 14.583C9.08721 14.583 8.85425 14.816 8.85425 15.1039C8.85425 15.3917 9.08721 15.6246 9.3751 15.6246C9.94985 15.6246 10.4167 16.0921 10.4167 16.6663C10.4167 17.2405 9.94981 17.7079 9.3751 17.7079C8.80034 17.7079 8.33345 17.2405 8.33345 16.6663C8.33345 16.3784 8.10049 16.1454 7.8126 16.1454C7.52471 16.1454 7.29175 16.3784 7.29175 16.6663C7.29175 17.8153 8.22661 18.7496 9.3751 18.7496C10.5236 18.7496 11.4584 17.8153 11.4584 16.6663C11.4584 16.0448 11.1848 15.4858 10.7515 15.1038C11.1848 14.7218 11.4584 14.1628 11.4584 13.5413C11.4584 12.3923 10.5236 11.458 9.3751 11.458Z" fill="#303C42"/>
<path d="M14.063 11.458C14.063 11.458 14.063 11.458 14.062 11.458L13.0223 11.459C12.7344 11.4595 12.5015 11.6925 12.5015 11.9804C12.5015 12.2677 12.7344 12.5007 13.0223 12.5007C13.0223 12.5007 13.0223 12.5007 13.0233 12.5007L13.5421 12.5002V18.2289C13.5421 18.5168 13.7751 18.7497 14.063 18.7497C14.3509 18.7497 14.5838 18.5168 14.5838 18.2289V11.9789C14.5838 11.8405 14.5289 11.7083 14.4313 11.6106C14.3336 11.5129 14.2013 11.458 14.063 11.458Z" fill="#303C42"/>
<path d="M19.2709 24.9993C22.435 24.9993 25 22.4343 25 19.2702C25 16.106 22.435 13.541 19.2709 13.541C16.1068 13.541 13.5417 16.106 13.5417 19.2702C13.5417 22.4343 16.1068 24.9993 19.2709 24.9993Z" fill="#303C42"/>
<path d="M19.2708 23.958C21.8596 23.958 23.9583 21.8593 23.9583 19.2705C23.9583 16.6817 21.8596 14.583 19.2708 14.583C16.6819 14.583 14.5833 16.6817 14.5833 19.2705C14.5833 21.8593 16.6819 23.958 19.2708 23.958Z" fill="#FFCA28"/>
<path d="M19.2708 15.625C18.983 15.625 18.75 15.858 18.75 16.1458V20.3125C18.75 20.6004 18.983 20.8333 19.2708 20.8333C19.5587 20.8333 19.7917 20.6004 19.7917 20.3125V16.1458C19.7917 15.858 19.5587 15.625 19.2708 15.625Z" fill="#303C42"/>
<path d="M19.2708 22.9167C19.5585 22.9167 19.7917 22.6835 19.7917 22.3958C19.7917 22.1082 19.5585 21.875 19.2708 21.875C18.9832 21.875 18.75 22.1082 18.75 22.3958C18.75 22.6835 18.9832 22.9167 19.2708 22.9167Z" fill="#303C42"/>
<path d="M22.9167 14.8549V4.16665C22.9167 3.01768 21.9818 2.0833 20.8333 2.0833H17.7083V0.520801C17.7083 0.232959 17.4754 0 17.1875 0C16.8996 0 16.6667 0.232959 16.6667 0.52085V2.08335H7.29165V0.52085C7.29165 0.232959 7.05874 0 6.77085 0C6.48296 0 6.25 0.232959 6.25 0.52085V2.08335H2.08335C0.934863 2.08335 0 3.01768 0 4.16665V20.8333C0 21.9823 0.934863 22.9167 2.08335 22.9167H14.8549C15.9066 24.1883 17.4956 25 19.2708 25C22.4299 25 25 22.4299 25 19.2708C25 17.4956 24.1883 15.9066 22.9167 14.8549Z" fill="url(#paint1_linear)"/>
<rect x="18" y="15" width="2" height="8" fill="#FFCB2C"/>
<path d="M17.5 17.5L21.5 21.5" stroke="#333F45"/>
<path d="M17.5 21.5L21.5 17.5" stroke="#333F45"/>
<circle cx="21.5" cy="17.5" r="0.5" fill="#333F45"/>
<circle cx="17.5" cy="17.5" r="0.5" fill="#333F45"/>
<circle cx="17.5" cy="21.5" r="0.5" fill="#333F45"/>
<circle cx="21.5" cy="21.5" r="0.5" fill="#333F45"/>
</g>
<defs>
<linearGradient id="paint0_linear" x1="6.25019" y1="3.1257" x2="20.8335" y2="17.709" gradientUnits="userSpaceOnUse">
<stop stop-opacity="0.1"/>
<stop offset="1" stop-opacity="0"/>
</linearGradient>
<linearGradient id="paint1_linear" x1="-1.27948" y1="6.45009" x2="25.7035" y2="19.0328" gradientUnits="userSpaceOnUse">
<stop stop-color="white" stop-opacity="0.2"/>
<stop offset="1" stop-color="white" stop-opacity="0"/>
</linearGradient>
<clipPath id="clip0">
<rect width="25" height="25" fill="white"/>
</clipPath>
</defs>
</svg>
