<svg width="25" height="25" viewBox="0 0 25 25" fill="none" xmlns="http://www.w3.org/2000/svg">
<g clip-path="url(#clip0)">
<path d="M22.9167 4.16665C22.9167 3.01768 21.9818 2.0833 20.8333 2.0833H17.7083V0.520801C17.7083 0.232959 17.4754 0 17.1875 0C16.8996 0 16.6667 0.232959 16.6667 0.52085V2.08335H7.29165V0.52085C7.29165 0.232959 7.05874 0 6.77085 0C6.48296 0 6.25 0.232959 6.25 0.52085V2.08335H2.08335C0.934863 2.08335 0 3.01768 0 4.16665V20.8333C0 21.9823 0.934863 22.9167 2.08335 22.9167H17.1865V22.9165L17.1875 22.9167C17.3229 22.9167 17.4561 22.8638 17.5558 22.7641L22.7642 17.5557C22.8635 17.456 22.8964 17.3229 22.8965 17.1875H22.9167V4.16665H22.9167Z" fill="#303C42"/>
<path d="M2.08333 3.125H6.24998V4.16665C5.67522 4.16665 5.20833 4.63408 5.20833 5.2083C5.20833 5.78252 5.67522 6.25 6.24998 6.25C6.82473 6.25 7.29163 5.78257 7.29163 5.20835V3.125H16.6666V4.16665C16.0919 4.16665 15.625 4.63408 15.625 5.2083C15.625 5.78252 16.0919 6.25 16.6666 6.25C17.2413 6.25 17.7083 5.78257 17.7083 5.20835V3.125H20.8333C21.4081 3.125 21.875 3.59243 21.875 4.16665V7.29165H1.04163V4.16665C1.04163 3.59243 1.50857 3.125 2.08333 3.125Z" fill="#D32F2F"/>
<path opacity="0.2" d="M16.6666 3.125H7.29163V3.64585H16.6666V3.125Z" fill="white"/>
<path opacity="0.2" d="M2.0834 3.64585H6.25005V3.125H2.0834C1.50864 3.125 1.04175 3.59243 1.04175 4.16665V4.6875C1.0417 4.11328 1.50864 3.64585 2.0834 3.64585Z" fill="white"/>
<path opacity="0.2" d="M20.8334 3.125H17.7084V3.64585H20.8334C21.4081 3.64585 21.875 4.11328 21.875 4.6875V4.16665C21.875 3.59243 21.4081 3.125 20.8334 3.125Z" fill="white"/>
<path d="M16.6667 18.7497V21.8747H2.0834C1.50864 21.8747 1.04175 21.4072 1.04175 20.833V8.33301H21.875V16.6664H18.75C17.6016 16.6663 16.6667 17.6007 16.6667 18.7497Z" fill="white"/>
<path d="M17.7084 21.1382V18.7497C17.7084 18.1754 18.1753 17.708 18.75 17.708H21.1385L17.7084 21.1382Z" fill="#E6E6E6"/>
<path d="M16.6666 21.8747V18.7497C16.6666 17.6007 17.6015 16.6663 18.75 16.6663H21.875V8.33301H1.04163L14.5833 21.8747H16.6666Z" fill="url(#paint0_linear)"/>
<path d="M9.37498 11.458C8.22649 11.458 7.29163 12.3923 7.29163 13.5414C7.29163 13.8292 7.52459 14.0622 7.81248 14.0622C8.10037 14.0622 8.33333 13.8292 8.33333 13.5414C8.33333 12.9671 8.80027 12.4997 9.37498 12.4997C9.94973 12.4997 10.4166 12.9671 10.4166 13.5414C10.4166 14.1156 9.94968 14.583 9.37498 14.583C9.08709 14.583 8.85413 14.816 8.85413 15.1039C8.85413 15.3917 9.08709 15.6246 9.37498 15.6246C9.94973 15.6246 10.4166 16.0921 10.4166 16.6663C10.4166 17.2405 9.94968 17.7079 9.37498 17.7079C8.80022 17.7079 8.33333 17.2405 8.33333 16.6663C8.33333 16.3784 8.10037 16.1454 7.81248 16.1454C7.52459 16.1454 7.29163 16.3784 7.29163 16.6663C7.29163 17.8153 8.22649 18.7496 9.37498 18.7496C10.5235 18.7496 11.4583 17.8153 11.4583 16.6663C11.4583 16.0448 11.1847 15.4858 10.7513 15.1038C11.1847 14.7218 11.4583 14.1628 11.4583 13.5413C11.4583 12.3923 10.5235 11.458 9.37498 11.458Z" fill="#303C42"/>
<path d="M14.0629 11.458C14.0629 11.458 14.0629 11.458 14.0618 11.458L13.0222 11.459C12.7343 11.4595 12.5013 11.6925 12.5013 11.9804C12.5013 12.2677 12.7343 12.5007 13.0222 12.5007C13.0222 12.5007 13.0222 12.5007 13.0232 12.5007L13.542 12.5002V18.2289C13.542 18.5168 13.775 18.7497 14.0629 18.7497C14.3508 18.7497 14.5837 18.5168 14.5837 18.2289V11.9789C14.5837 11.8405 14.5288 11.7083 14.4311 11.6106C14.3335 11.5129 14.2012 11.458 14.0629 11.458Z" fill="#303C42"/>
<path d="M19.2709 24.9993C22.435 24.9993 25 22.4343 25 19.2702C25 16.106 22.435 13.541 19.2709 13.541C16.1068 13.541 13.5417 16.106 13.5417 19.2702C13.5417 22.4343 16.1068 24.9993 19.2709 24.9993Z" fill="#303C42"/>
<path d="M19.2709 23.958C21.8597 23.958 23.9584 21.8593 23.9584 19.2705C23.9584 16.6817 21.8597 14.583 19.2709 14.583C16.682 14.583 14.5834 16.6817 14.5834 19.2705C14.5834 21.8593 16.682 23.958 19.2709 23.958Z" fill="#FFCA28"/>
<path d="M19.2708 15.625C18.983 15.625 18.75 15.858 18.75 16.1458V20.3125C18.75 20.6004 18.983 20.8333 19.2708 20.8333C19.5587 20.8333 19.7917 20.6004 19.7917 20.3125V16.1458C19.7917 15.858 19.5587 15.625 19.2708 15.625Z" fill="#303C42"/>
<path d="M19.2708 22.9167C19.5585 22.9167 19.7917 22.6835 19.7917 22.3958C19.7917 22.1082 19.5585 21.875 19.2708 21.875C18.9832 21.875 18.75 22.1082 18.75 22.3958C18.75 22.6835 18.9832 22.9167 19.2708 22.9167Z" fill="#303C42"/>
<path d="M22.9167 14.8549V4.16665C22.9167 3.01768 21.9818 2.0833 20.8333 2.0833H17.7083V0.520801C17.7083 0.232959 17.4754 0 17.1875 0C16.8996 0 16.6667 0.232959 16.6667 0.52085V2.08335H7.29165V0.52085C7.29165 0.232959 7.05874 0 6.77085 0C6.48296 0 6.25 0.232959 6.25 0.52085V2.08335H2.08335C0.934863 2.08335 0 3.01768 0 4.16665V20.8333C0 21.9823 0.934863 22.9167 2.08335 22.9167H14.8549C15.9066 24.1883 17.4956 25 19.2708 25C22.4299 25 25 22.4299 25 19.2708C25 17.4956 24.1883 15.9066 22.9167 14.8549Z" fill="url(#paint1_linear)"/>
</g>
<defs>
<linearGradient id="paint0_linear" x1="6.25007" y1="3.1257" x2="20.8334" y2="17.709" gradientUnits="userSpaceOnUse">
<stop stop-opacity="0.1"/>
<stop offset="1" stop-opacity="0"/>
</linearGradient>
<linearGradient id="paint1_linear" x1="-1.27948" y1="6.45009" x2="25.7035" y2="19.0328" gradientUnits="userSpaceOnUse">
<stop stop-color="white" stop-opacity="0.2"/>
<stop offset="1" stop-color="white" stop-opacity="0"/>
</linearGradient>
<clipPath id="clip0">
<rect width="25" height="25" fill="white"/>
</clipPath>
</defs>
</svg>
