<svg width="17" height="25" viewBox="0 0 17 25" fill="none" xmlns="http://www.w3.org/2000/svg">
<path d="M15.5834 1.66624H10.5834L11.3334 0.666236C11.4717 0.482486 11.4342 0.221236 11.2501 0.0833194C11.0663 -0.0545972 10.8051 -0.0175139 10.6672 0.166653L9.54175 1.66624H7.50758L6.78925 0.229986C6.68633 0.0241528 6.43591 -0.0583472 6.23008 0.0437361C6.02425 0.146653 5.94091 0.397069 6.04383 0.602903L6.57591 1.66624H1.41675C0.727581 1.66624 0.166748 2.22707 0.166748 2.91624V23.7496C0.166748 24.4387 0.727581 24.9996 1.41675 24.9996H15.5834C16.2726 24.9996 16.8334 24.4387 16.8334 23.7496V2.91624C16.8334 2.22707 16.2726 1.66624 15.5834 1.66624ZM1.41675 2.49957H6.99258L7.40925 3.3329C7.05925 3.63874 6.83341 4.08249 6.83341 4.5829C6.83341 5.50207 7.58091 6.24957 8.50008 6.24957C9.41925 6.24957 10.1667 5.50207 10.1667 4.5829C10.1667 3.66374 9.41925 2.91624 8.50008 2.91624C8.3805 2.91624 8.26425 2.92999 8.15175 2.95415L7.92425 2.49957H15.5834C15.8134 2.49957 16.0001 2.68624 16.0001 2.91624V16.6662H12.6051C12.478 16.1733 12.1488 15.7521 11.6842 15.5196L10.1667 14.7446V14.5833C10.8451 14.2129 11.3222 13.6029 11.5884 12.765C11.9922 12.5508 12.2501 12.1337 12.2501 11.6662V11.2496C12.2501 10.8637 12.0705 10.5058 11.7705 10.2708C11.5105 8.69582 10.4113 7.89749 8.50008 7.89749C8.40966 7.89749 8.32133 7.90082 8.23508 7.90749C7.8755 7.9354 7.348 7.90624 6.89175 7.59915C6.72133 7.48415 6.59258 7.37249 6.5105 7.26874C6.3705 7.08957 6.1355 7.02707 5.92633 7.11332C5.71716 7.19915 5.59425 7.40832 5.6205 7.6329C5.638 7.78874 5.66425 7.96999 5.70383 8.16874C5.78425 8.57499 5.78425 8.57499 5.67133 8.8179C5.62883 8.90999 5.57633 9.02207 5.51466 9.17332C5.37675 9.51124 5.27883 9.88124 5.22258 10.2762C4.92675 10.5112 4.75008 10.8675 4.75008 11.2496V11.6662C4.75008 12.1337 5.008 12.5508 5.41175 12.765C5.678 13.6033 6.15508 14.2133 6.83341 14.5833V14.74L5.263 15.5142C4.81425 15.7587 4.50133 16.18 4.38508 16.6662H1.00008V2.91624C1.00008 2.68624 1.18675 2.49957 1.41675 2.49957ZM7.80508 4.12499L8.12716 4.76915C8.2005 4.9154 8.34758 4.99957 8.5005 4.99957C8.563 4.99957 8.62675 4.9854 8.68633 4.95582C8.89216 4.8529 8.9755 4.60249 8.87258 4.39665L8.55175 3.75499C8.98675 3.78207 9.33341 4.14124 9.33341 4.5829C9.33341 5.04249 8.95966 5.41624 8.50008 5.41624C8.0405 5.41624 7.66675 5.04249 7.66675 4.5829C7.66675 4.41374 7.718 4.25665 7.80508 4.12499ZM7.25425 15.4617C7.50508 15.3392 7.66675 15.0796 7.66675 14.8V14.0487L7.41508 13.9404C6.783 13.6679 6.37216 13.1483 6.15883 12.3512L6.09925 12.1292L5.88008 12.0608C5.7055 12.0067 5.58341 11.8446 5.58341 11.6662V11.2496C5.58341 11.0987 5.66966 10.9587 5.80883 10.8846L6.00425 10.7804L6.02716 10.56C6.06841 10.1692 6.1555 9.80874 6.28633 9.48915C6.34175 9.35374 6.38883 9.25249 6.42716 9.16957C6.56841 8.86624 6.61966 8.70957 6.58425 8.38832C7.07425 8.66832 7.663 8.78665 8.30175 8.73874C8.36633 8.73332 8.43258 8.73082 8.5005 8.73082C10.0605 8.73082 10.8222 9.29582 10.9709 10.5633L10.9967 10.7808L11.1905 10.8833C11.3297 10.9575 11.4167 11.0979 11.4167 11.2496V11.6662C11.4167 11.8446 11.2947 12.0067 11.1201 12.0608L10.9009 12.1292L10.8413 12.3512C10.628 13.1483 10.2172 13.6679 9.58508 13.9404L9.33341 14.0492V14.8037C9.33341 15.0825 9.48758 15.3337 9.73508 15.46L11.308 16.2637C11.4876 16.3537 11.6297 16.4958 11.7205 16.6667H5.2605C5.34341 16.4921 5.478 16.3458 5.64675 16.2546L7.25425 15.4617ZM15.5834 24.1662H1.41675C1.18675 24.1662 1.00008 23.9796 1.00008 23.7496V17.4996H4.33341H12.6742H16.0001V23.7496C16.0001 23.9796 15.8134 24.1662 15.5834 24.1662Z" fill="black"/>
<path d="M12.2502 20.416H4.75016C4.51975 20.416 4.3335 20.6023 4.3335 20.8327C4.3335 21.0631 4.51975 21.2493 4.75016 21.2493H12.2502C12.4806 21.2493 12.6668 21.0631 12.6668 20.8327C12.6668 20.6023 12.4806 20.416 12.2502 20.416Z" fill="black"/>
<path d="M6.41667 19.5833H10.5833C10.8138 19.5833 11 19.3971 11 19.1667C11 18.9363 10.8138 18.75 10.5833 18.75H6.41667C6.18625 18.75 6 18.9363 6 19.1667C6 19.3971 6.18625 19.5833 6.41667 19.5833Z" fill="black"/>
<path d="M5.16683 22.083H4.75016C4.51975 22.083 4.3335 22.2693 4.3335 22.4997C4.3335 22.7301 4.51975 22.9163 4.75016 22.9163H5.16683C5.39725 22.9163 5.5835 22.7301 5.5835 22.4997C5.5835 22.2693 5.39725 22.083 5.16683 22.083Z" fill="black"/>
<path d="M7.66675 22.083H6.83341C6.603 22.083 6.41675 22.2693 6.41675 22.4997C6.41675 22.7301 6.603 22.9163 6.83341 22.9163H7.66675C7.89716 22.9163 8.08342 22.7301 8.08342 22.4997C8.08342 22.2693 7.89716 22.083 7.66675 22.083Z" fill="black"/>
<path d="M9.75008 22.083H9.33342C9.103 22.083 8.91675 22.2693 8.91675 22.4997C8.91675 22.7301 9.103 22.9163 9.33342 22.9163H9.75008C9.9805 22.9163 10.1667 22.7301 10.1667 22.4997C10.1667 22.2693 9.9805 22.083 9.75008 22.083Z" fill="black"/>
<path d="M12.25 22.083H11.4167C11.1863 22.083 11 22.2693 11 22.4997C11 22.7301 11.1863 22.9163 11.4167 22.9163H12.25C12.4804 22.9163 12.6667 22.7301 12.6667 22.4997C12.6667 22.2693 12.4804 22.083 12.25 22.083Z" fill="black"/>
</svg>
