<svg width="38" height="38" viewBox="0 0 38 38" fill="none" xmlns="http://www.w3.org/2000/svg">
<g clip-path="url(#clip0)">
<path d="M25.3344 1.08594L23.1172 7.23353C25.1638 13.9877 25.1638 24.0125 23.1172 30.767L25.3344 36.9139C32.7129 34.3049 38.0001 27.2716 38.0001 18.9995C38.0001 10.7287 32.7129 3.69509 25.3344 1.08594Z" fill="#E61E25"/>
<path d="M25.3344 7.23324V1.08565C23.3529 0.384906 21.2217 0 18.9998 0C21.9296 0 17.8674 9.92935 25.3344 7.23324Z" fill="#E4E4E4"/>
<path d="M18.9998 37.9997C21.2216 37.9997 23.3529 37.6148 25.3344 36.9139V30.767C17.9424 30.0293 18.9998 37.9997 18.9998 37.9997Z" fill="#E4E4E4"/>
<path d="M0 18.9999C0 27.2997 5.32315 34.3514 12.7398 36.9395V1.06152C5.32315 3.64957 0 10.7014 0 18.9999Z" fill="#3757A6"/>
<path d="M25.3344 7.2334V30.7668C27.3813 24.0124 27.3813 13.9875 25.3344 7.2334Z" fill="#EF4F4E"/>
<path d="M25.3343 30.7669V7.23324C24.0408 2.96309 21.9296 0 18.9998 0C16.8057 0 14.7006 0.376804 12.7398 1.0611V36.9392C14.7006 37.6235 16.8057 37.9998 18.9998 37.9998C21.9296 37.9997 24.0408 35.0366 25.3343 30.7669Z" fill="#F3F4F5"/>
</g>
<defs>
<clipPath id="clip0">
<rect width="38" height="38" fill="white"/>
</clipPath>
</defs>
</svg>
