<svg width="25" height="25" viewBox="0 0 25 25" fill="none" xmlns="http://www.w3.org/2000/svg">
<path d="M12.4996 15.2559C14.0193 15.2559 15.2557 14.0195 15.2557 12.4998C15.2557 10.9801 14.0193 9.74365 12.4996 9.74365C10.9799 9.74365 9.74346 10.9801 9.74346 12.4998C9.74346 14.0195 10.9799 15.2559 12.4996 15.2559ZM12.4996 10.8332C13.4185 10.8332 14.1661 11.5808 14.1661 12.4998C14.1661 13.4187 13.4185 14.1663 12.4996 14.1663C11.5806 14.1663 10.833 13.4187 10.833 12.4998C10.833 11.5808 11.5806 10.8332 12.4996 10.8332Z" fill="white"/>
<path d="M24.4552 11.9552H22.2965C22.0227 6.9778 18.0222 2.97729 13.0448 2.70353V0.544793C13.0448 0.243976 12.8008 0 12.5 0C12.1992 0 11.9552 0.243976 11.9552 0.544793V3.23289C11.9552 3.53371 12.1992 3.77768 12.5 3.77768C17.3095 3.77768 21.2223 7.69048 21.2223 12.5C21.2223 17.3095 17.3095 21.2223 12.5 21.2223C7.69048 21.2223 3.77768 17.3095 3.77768 12.5C3.77768 9.16015 5.7255 6.0699 8.73993 4.62738C9.01133 4.49745 9.1261 4.1722 8.99616 3.90081C8.86632 3.6295 8.54081 3.51473 8.26959 3.64457C6.62332 4.43234 5.23028 5.66185 4.24121 7.20007C3.32324 8.62779 2.79778 10.2616 2.70453 11.9552H0.544793C0.243976 11.9552 0 12.1992 0 12.5C0 12.8008 0.243976 13.0448 0.544793 13.0448H2.70353C2.97729 18.0222 6.9778 22.0227 11.9552 22.2965V24.4552C11.9552 24.756 12.1992 25 12.5 25C12.8008 25 13.0448 24.756 13.0448 24.4552V22.2965C18.0222 22.0227 22.0227 18.0222 22.2965 13.0448H24.4552C24.756 13.0448 25 12.8008 25 12.5C25 12.1992 24.756 11.9552 24.4552 11.9552Z" fill="white"/>
</svg>
