<svg width="38" height="38" viewBox="0 0 38 38" fill="none" xmlns="http://www.w3.org/2000/svg">
<g clip-path="url(#clip0)">
<path d="M19.0009 38.0003C29.4939 38.0003 38.0001 29.4941 38.0001 19.0011C38.0001 8.50818 29.4939 0.00195312 19.0009 0.00195312C8.50797 0.00195312 0.0017395 8.50818 0.0017395 19.0011C0.0017395 29.4941 8.50797 38.0003 19.0009 38.0003Z" fill="white"/>
<path d="M36.9139 12.665H25.2076C25.7159 16.7238 25.7191 21.1959 25.2173 25.2596H36.9391C37.6231 23.2992 37.9996 21.1938 37.9996 19.0002C37.9999 16.7777 37.6147 14.6465 36.9139 12.665Z" fill="#D32027"/>
<path d="M25.2075 12.6653H36.9138C36.9117 12.6592 36.9098 12.6542 36.9078 12.6487C34.476 5.79224 28.2212 0.747746 20.7059 0.078125C23.6142 1.67232 24.4635 6.72315 25.2075 12.6653Z" fill="#0B0B0B"/>
<path d="M20.7064 37.9213C28.2351 37.2504 34.4989 32.1885 36.921 25.3138C36.9274 25.2955 36.9327 25.2775 36.9393 25.2598H25.2171C24.4795 31.234 23.6266 36.3205 20.7064 37.9213Z" fill="#F3C515"/>
<path d="M0 19.0002C0 21.1941 0.376486 23.2991 1.06047 25.2596H26.1954C26.6972 21.1955 26.6939 16.7238 26.1857 12.665H1.08574C0.38491 14.6465 0 16.7777 0 19.0002Z" fill="#DB2727"/>
<path d="M1.09162 12.6486C1.08953 12.654 1.08769 12.6591 1.0856 12.6651H26.186C25.442 6.723 23.6144 1.67225 20.7065 0.0780569C20.1439 0.0282385 19.5751 0 18.9998 0C10.7345 0 3.7052 5.27883 1.09162 12.6486Z" fill="#151515"/>
<path d="M26.1952 25.2598H1.0603C1.06664 25.2775 1.07234 25.2955 1.07859 25.3138C3.68199 32.7024 10.7206 37.9998 18.9994 37.9998C19.5748 37.9998 20.1436 37.9716 20.706 37.9212C23.6263 36.3205 25.4575 31.234 26.1952 25.2598Z" fill="#F8D12E"/>
</g>
<defs>
<clipPath id="clip0">
<rect width="38" height="38" fill="white"/>
</clipPath>
</defs>
</svg>
