<svg width="54" height="54" viewBox="0 0 54 54" fill="none" xmlns="http://www.w3.org/2000/svg">
<rect x="0.5" y="0.5" width="49" height="49" rx="19.5" stroke="#EEEEEE"/>
<path d="M19.6187 26.4707C19.8489 26.4707 20.0653 26.5603 20.228 26.7231C20.3201 26.8151 20.4407 26.8612 20.5614 26.8612C20.682 26.8612 20.8027 26.8151 20.8948 26.7231C21.0789 26.539 21.0789 26.2405 20.8948 26.0564C20.5539 25.7155 20.1008 25.5278 19.6188 25.5278C19.1368 25.5278 18.6836 25.7155 18.3428 26.0564C18.1586 26.2405 18.1586 26.5389 18.3428 26.7231C18.5269 26.9072 18.8254 26.9072 19.0094 26.7231C19.1721 26.5603 19.3885 26.4707 19.6187 26.4707Z" fill="#929292"/>
<path d="M28.1052 26.056C27.9211 26.2401 27.9211 26.5386 28.1052 26.7227C28.2893 26.9068 28.5878 26.9068 28.7719 26.7227C29.1079 26.3867 29.6546 26.3868 29.9906 26.7227C30.0826 26.8148 30.2032 26.8608 30.3239 26.8608C30.4446 26.8608 30.5652 26.8148 30.6573 26.7227C30.8414 26.5386 30.8414 26.2402 30.6573 26.056C29.9538 25.3525 28.8089 25.3524 28.1052 26.056Z" fill="#929292"/>
<path d="M29.3787 30.7064C26.6886 33.3965 22.3116 33.3965 19.6214 30.7064C19.4373 30.5223 19.1388 30.5223 18.9547 30.7064C18.7706 30.8905 18.7706 31.1891 18.9547 31.3732C20.4836 32.902 22.4918 33.6664 24.5001 33.6664C26.5084 33.6664 28.5166 32.902 30.0455 31.3732C30.2296 31.1891 30.2296 30.8906 30.0455 30.7064C29.8614 30.5223 29.5628 30.5223 29.3787 30.7064Z" fill="#929292"/>
<path d="M35.6236 26.9785C35.6236 25.6979 34.6978 24.6301 33.4806 24.4074V16.5208C33.4806 15.4976 32.9716 14.5491 32.1191 13.9834C31.3183 13.4522 30.3243 13.3316 29.4254 13.6484L26.4656 12.6438C24.1913 11.8717 21.7973 11.7925 19.5425 12.4146C16.5906 13.2291 14.8983 14.9514 14.6371 17.3995C14.4059 17.7044 14.2222 18.0468 14.0974 18.4163L13.8678 19.0958C13.7446 19.4607 13.8804 19.8441 14.2059 20.0498C14.5314 20.2556 14.9361 20.214 15.2128 19.9462C15.3073 19.8547 15.4107 19.7776 15.5195 19.7131V24.4074C14.3022 24.6301 13.3765 25.6978 13.3765 26.9785C13.3765 28.3103 14.3777 29.412 15.6669 29.5722C15.9907 31.3598 16.8414 33.0089 18.1423 34.3285C19.8407 36.0513 22.0985 37.0001 24.5 37.0001C24.5003 37.0001 24.5006 37.0001 24.5009 37.0001C26.8994 36.9998 29.1542 36.0657 30.8502 34.3698C32.175 33.045 33.0349 31.3792 33.348 29.5703C34.63 29.4035 35.6236 28.3051 35.6236 26.9785ZM31.5978 14.7691C32.1952 15.1654 32.5377 15.8039 32.5377 16.5208V22.69C31.0744 22.4626 29.9509 21.1942 29.9509 19.6681L29.9119 14.4848C30.4876 14.333 31.0879 14.4308 31.5978 14.7691ZM14.8991 18.9892L14.9907 18.7181C15.2307 18.0077 15.7637 17.431 16.453 17.1359C17.1423 16.8407 17.9275 16.853 18.6072 17.1696C20.0349 17.8345 21.7607 17.475 22.8041 16.2955L22.9209 16.1635C23.0935 15.9685 23.0752 15.6705 22.8802 15.498C22.6851 15.3256 22.3872 15.3438 22.2147 15.5388L22.0979 15.6708C21.329 16.54 20.0572 16.8048 19.0053 16.3149C18.0829 15.8853 17.0173 15.8686 16.0819 16.2691C15.9967 16.3056 15.9139 16.3463 15.8324 16.3889C16.3804 14.928 17.7067 13.8992 19.7934 13.3235C21.8654 12.7518 24.0678 12.8255 26.1627 13.5365L28.969 14.4891L29.0058 16.9251C27.7562 18.624 25.9338 19.7742 23.857 20.1696C21.7304 20.5745 19.561 20.1461 17.7482 18.9631C16.8625 18.3852 15.7457 18.4099 14.8991 18.9892ZM14.3193 26.9785C14.3193 26.2205 14.8266 25.5791 15.5195 25.375V27.9303C15.5195 28.151 15.5274 28.3706 15.5429 28.5886C14.8382 28.3922 14.3193 27.745 14.3193 26.9785ZM30.1836 33.703C28.6657 35.2209 26.6475 36.0569 24.5009 36.0571C24.5005 36.0571 24.5004 36.0571 24.5 36.0571C22.3531 36.0571 20.3334 35.208 18.8137 33.6665C17.2974 32.1283 16.4623 30.0912 16.4623 27.9302V19.4908C16.7294 19.5108 16.9943 19.5971 17.2328 19.7528C19.2509 21.0697 21.666 21.5467 24.0333 21.0959C25.9549 20.7299 27.6811 19.7839 29.008 18.3888V19.6681C29.008 21.7148 30.5529 23.4064 32.5377 23.6405V28.0194C32.5377 30.1664 31.7017 32.1849 30.1836 33.703ZM33.4624 28.5871C33.474 28.3989 33.4806 28.2097 33.4806 28.0195V25.375C34.1734 25.5791 34.6807 26.2205 34.6807 26.9785C34.6807 27.7431 34.1645 28.389 33.4624 28.5871Z" fill="#929292"/>
<rect x="34" y="34" width="20" height="20" fill="white"/>
<path d="M44 34C38.4862 34 34 38.4858 34 44C34 49.5142 38.4862 54 44 54C49.5138 54 54 49.5142 54 44C54 38.4858 49.5138 34 44 34ZM44 53.2308C38.9104 53.2308 34.7692 49.0896 34.7692 44C34.7692 38.9104 38.9104 34.7692 44 34.7692C49.0896 34.7692 53.2308 38.9104 53.2308 44C53.2308 49.0896 49.0896 53.2308 44 53.2308Z" fill="#EEEEEE"/>
<path d="M48.8077 43.6154H44.3846V39.3846C44.3846 39.1719 44.2123 39 44 39C43.7877 39 43.6154 39.1719 43.6154 39.3846V43.6154H39.1923C38.98 43.6154 38.8077 43.7873 38.8077 44C38.8077 44.2127 38.98 44.3846 39.1923 44.3846H43.6154V49C43.6154 49.2127 43.7877 49.3846 44 49.3846C44.2123 49.3846 44.3846 49.2127 44.3846 49V44.3846H48.8077C49.02 44.3846 49.1923 44.2127 49.1923 44C49.1923 43.7873 49.02 43.6154 48.8077 43.6154Z" fill="#929292"/>
</svg>
