<svg width="38" height="38" viewBox="0 0 38 38" fill="none" xmlns="http://www.w3.org/2000/svg">
<path d="M25.3343 1.08594L23.117 7.23353C25.1637 13.9877 25.1637 24.0125 23.117 30.767L25.3343 36.9139C32.7127 34.3048 37.9999 27.2716 37.9999 18.9995C37.9999 10.7287 32.7127 3.69509 25.3343 1.08594Z" fill="#E63026"/>
<path d="M25.3341 7.23324V1.08565C23.3526 0.384906 21.2214 0 18.9996 0C21.9294 0 17.8671 9.92935 25.3341 7.23324Z" fill="#E4E4E4"/>
<path d="M18.9998 37.9997C21.2215 37.9997 23.3528 37.6147 25.3343 36.9139V30.767C17.9423 30.0293 18.9998 37.9997 18.9998 37.9997Z" fill="#E4E4E4"/>
<path d="M0 18.9994C0 27.2992 5.32315 34.3509 12.7398 36.939V1.06104C5.32315 3.64909 0 10.7009 0 18.9994Z" fill="#359846"/>
<path d="M25.3344 7.2334V30.7668C27.3812 24.0124 27.3812 13.9875 25.3344 7.2334Z" fill="#EF4C4C"/>
<path d="M25.3343 30.7669V7.23324C24.0407 2.96309 21.9296 0 18.9998 0C16.8057 0 14.7005 0.376804 12.7397 1.0611V36.9392C14.7005 37.6235 16.8057 37.9998 18.9998 37.9998C21.9296 37.9997 24.0407 35.0366 25.3343 30.7669Z" fill="#F3F4F5"/>
</svg>
