<svg width="12" height="11" viewBox="0 0 12 11" fill="none" xmlns="http://www.w3.org/2000/svg">
<path d="M10.8077 4.61538H6.38459V0.384615C6.38459 0.171923 6.21228 0 5.99997 0C5.78766 0 5.61536 0.171923 5.61536 0.384615V4.61538H1.19228C0.979971 4.61538 0.807663 4.78731 0.807663 5C0.807663 5.21269 0.979971 5.38462 1.19228 5.38462H5.61536V10C5.61536 10.2127 5.78766 10.3846 5.99997 10.3846C6.21228 10.3846 6.38459 10.2127 6.38459 10V5.38462H10.8077C11.02 5.38462 11.1923 5.21269 11.1923 5C11.1923 4.78731 11.02 4.61538 10.8077 4.61538Z" fill="#929292"/>
</svg>
