<svg width="30" height="30" viewBox="0 0 30 30" fill="none" xmlns="http://www.w3.org/2000/svg">
<path d="M0.317439 28.7741L0.317424 28.774C0.241323 28.2941 0.486995 27.8256 0.926842 27.6086C1.97485 27.0941 2.85713 26.0982 3.54594 24.6594L3.55987 24.6303L3.53911 24.6056C-1.42198 18.7063 -1.06198 9.91498 4.42399 4.43038C7.24944 1.60563 11.0022 0.05 14.9993 0.05C18.9964 0.05 22.7492 1.60564 25.5747 4.4243C31.4084 10.2566 31.4084 19.7373 25.5747 25.5696C22.7492 28.3944 18.9964 29.95 14.9993 29.95C12.4668 29.95 9.97703 29.3094 7.77415 28.0954L7.74663 28.0802L7.72102 28.0984C5.65063 29.5717 3.53749 29.797 2.42936 29.797C2.02098 29.797 1.61971 29.7726 1.24964 29.7119L1.24929 29.7119C0.762924 29.6357 0.393728 29.2611 0.317439 28.7741ZM5.21047 5.21663L5.21045 5.21665C0.048729 10.3832 -0.209421 18.7074 4.62058 24.169L4.62081 24.1693C4.76661 24.3318 4.80053 24.5619 4.71625 24.7587C3.91716 26.5821 2.85225 27.8508 1.54289 28.5356L1.40323 28.6086L1.55945 28.6294C1.83731 28.6665 2.12729 28.685 2.42324 28.685C3.44621 28.685 5.44837 28.4632 7.36429 26.9789L7.36436 26.9789C7.46571 26.9001 7.58347 26.8609 7.70715 26.8609C7.80118 26.8609 7.89674 26.8885 7.98835 26.9399C10.1083 28.1869 12.5293 28.8441 14.9993 28.8441C18.6985 28.8441 22.1767 27.4004 24.7882 24.7895L24.7882 24.7895C30.1834 19.3894 30.1835 10.6106 24.7882 5.21663C22.1705 2.59963 18.6985 1.162 14.9993 1.162C11.3002 1.162 7.82199 2.60576 5.21047 5.21663Z" fill="black" stroke="white" stroke-width="0.1"/>
</svg>
