<svg width="36" height="36" viewBox="0 0 36 36" fill="none" xmlns="http://www.w3.org/2000/svg">
<path d="M5.54062 28.7416L5.38739 28.8344L5.50566 28.9689C8.55876 32.4424 13.0214 34.65 18 34.65C22.9786 34.65 27.4412 32.4423 30.4944 28.9689L30.6125 28.8345L30.4596 28.7416C30.4404 28.7299 30.4202 28.7175 30.3995 28.7046C30.3334 28.6637 30.2611 28.619 30.1911 28.5828L30.1908 28.5827C27.3228 27.1104 22.8743 25.35 18 25.35C13.1257 25.35 8.67717 27.1104 5.80842 28.5834L5.80818 28.5835C5.73932 28.619 5.66778 28.6632 5.60249 28.7036C5.58109 28.7168 5.56036 28.7296 5.54062 28.7416ZM4.55133 27.7761L4.63507 27.891L4.75428 27.8135C4.92493 27.7026 5.09165 27.6028 5.25934 27.5164C8.25552 25.9779 12.8935 24.15 18 24.15C23.1066 24.15 27.7446 25.9779 30.7401 27.5158C30.9082 27.6024 31.075 27.7025 31.2457 27.8135L31.3649 27.891L31.4487 27.7761C33.4522 25.0277 34.65 21.6551 34.65 18C34.65 8.819 27.181 1.34998 18 1.34998C8.819 1.34998 1.34998 8.819 1.34998 18C1.34998 21.6551 2.54785 25.0275 4.55133 27.7761ZM0.15 18C0.15 8.15781 8.15781 0.15 18 0.15C27.8422 0.15 35.85 8.15781 35.85 18C35.85 27.8422 27.8422 35.85 18 35.85C8.15781 35.85 0.15 27.8422 0.15 18Z" fill="black" stroke="white" stroke-width="0.3"/>
<path d="M9.525 13.875C9.525 9.20221 13.3273 5.4 18 5.4C22.6728 5.4 26.4751 9.20214 26.4751 13.875C26.4751 18.5478 22.6728 22.35 18 22.35C13.3273 22.35 9.525 18.5478 9.525 13.875ZM10.725 13.875C10.725 17.8866 13.9885 21.15 18 21.15C22.0116 21.15 25.275 17.8865 25.275 13.875C25.275 9.8634 22.0116 6.59998 18 6.59998C13.9885 6.59998 10.725 9.86347 10.725 13.875Z" fill="black" stroke="white" stroke-width="0.3"/>
</svg>
