<svg width="23" height="25" viewBox="0 0 23 25" fill="none" xmlns="http://www.w3.org/2000/svg">
<path d="M13.1416 18.8894C12.2364 19.7946 10.7636 19.7946 9.85842 18.8894C9.67315 18.7042 9.37278 18.7042 9.18752 18.8894C9.00219 19.0747 9.00219 19.3751 9.18752 19.5603C9.82509 20.1979 10.6626 20.5167 11.5001 20.5167C12.3375 20.5167 13.175 20.1979 13.8126 19.5603C13.9979 19.3751 13.9979 19.0747 13.8126 18.8894C13.6273 18.7042 13.3269 18.7042 13.1416 18.8894Z" fill="#929292"/>
<path d="M22.2363 23.5963C21.1249 22.3657 21.0779 19.2298 21.2094 15.9852C21.6935 15.5305 21.9968 14.8854 21.9968 14.1705C21.9968 13.5426 21.7628 12.9687 21.3781 12.5302C21.5398 9.22081 21.6255 7.00772 20.5758 4.96423C19.8596 3.56989 18.7008 2.40487 17.1317 1.50156C15.3028 0.448803 13.2166 -0.0679679 11.0984 0.00776273C9.23783 0.0740641 7.50563 0.940904 6.31114 2.39532C4.76877 2.48707 3.36571 3.32645 2.61083 4.62377C2.54601 4.73514 2.48333 4.84966 2.4245 4.96417C1.37418 7.00878 1.45987 9.22169 1.62153 12.5307C1.23707 12.9692 1.00329 13.5428 1.00329 14.1705C1.00329 14.8852 1.30633 15.5301 1.79019 15.9848C1.92173 19.2296 1.8747 22.3657 0.76335 23.5964C0.658264 23.7128 0.617463 23.8736 0.65435 24.026C0.691237 24.1784 0.801067 24.3028 0.947725 24.3582C2.19861 24.8309 3.41007 24.9999 4.50345 24.9999C5.63929 24.9999 6.64769 24.8173 7.43933 24.6033C8.81487 24.2313 9.78508 23.7092 10.1161 23.5165C10.5666 23.5908 11.0288 23.6301 11.5 23.6301C11.9711 23.6301 12.4332 23.5908 12.8836 23.5166C13.2147 23.7093 14.1848 24.2313 15.5602 24.6033C16.6163 24.8888 17.5952 25.0005 18.4809 25.0005C19.9562 25.0005 21.1722 24.6905 22.0518 24.3581C22.1986 24.3026 22.3083 24.1783 22.3452 24.0259C22.3822 23.8735 22.3414 23.7128 22.2363 23.5963ZM19.9804 15.1497V12.7945C19.9805 12.7883 19.9805 12.782 19.9804 12.7757V12.7035C20.5991 12.9041 21.0479 13.4857 21.0479 14.1704C21.0479 14.8605 20.5921 15.4462 19.9658 15.6423C19.9751 15.4792 19.9804 15.3151 19.9804 15.1497ZM3.26851 5.39774C3.31981 5.29794 3.37443 5.19807 3.43094 5.10099C4.05582 4.02706 5.25097 3.35076 6.54995 3.336C6.55144 3.336 6.55499 3.33594 6.55654 3.33588C6.70064 3.33285 6.8355 3.26454 6.92321 3.1502C7.94708 1.81462 9.48121 1.01486 11.1322 0.955967C13.0726 0.88676 14.9835 1.35982 16.6582 2.32386C18.0663 3.13448 19.1004 4.16868 19.7316 5.39774C20.5719 7.03333 20.5968 8.8125 20.459 11.8695C20.3065 11.8061 20.1464 11.7577 19.9804 11.7255V11.2431C19.9804 10.9811 19.768 10.7686 19.506 10.7686C19.244 10.7686 19.0316 10.9811 19.0316 11.2431V12.3205C12.4964 12.3903 8.95857 9.24257 8.01457 8.25772C7.9035 8.14184 7.74136 8.09 7.58385 8.11983C7.42616 8.14966 7.29427 8.25718 7.23325 8.40562C6.54384 10.0826 5.33933 10.96 3.44268 11.1667C3.20197 11.1929 3.01967 11.3962 3.01967 11.6384V11.7254C2.85356 11.7576 2.69327 11.8061 2.54062 11.8697C2.4028 8.81333 2.42788 7.03422 3.26851 5.39774ZM3.03426 15.6423C2.4079 15.4463 1.95215 14.8606 1.95215 14.1705C1.95215 13.4857 2.4009 12.9041 3.01961 12.7036V15.1497C3.01961 15.3151 3.02489 15.4792 3.03426 15.6423ZM1.87529 23.6711C2.72132 22.227 2.86803 19.8265 2.76046 16.5508C2.88642 16.5897 3.01677 16.6184 3.15032 16.6369C3.68992 19.6748 5.85266 22.1583 8.70676 23.1569C7.33406 23.7476 4.73598 24.5303 1.87529 23.6711ZM11.5 22.6812C7.34711 22.6812 3.96847 19.3026 3.96847 15.1497L3.96853 12.0524C5.74781 11.7596 7.0146 10.8837 7.81763 9.38917C8.50116 10.0127 9.60634 10.868 11.1639 11.6175C13.5058 12.7445 16.1505 13.3004 19.0316 13.2696V15.1497C19.0316 19.3026 15.6529 22.6812 11.5 22.6812ZM15.8391 23.6957C15.2308 23.5331 14.7059 23.3366 14.2916 23.1575C17.1465 22.1594 19.3101 19.6755 19.8498 16.6369C19.9832 16.6184 20.1134 16.5897 20.2392 16.5509C20.1316 19.827 20.2782 22.2276 21.1247 23.6715C19.4492 24.1777 17.6742 24.1862 15.8391 23.6957Z" fill="#929292"/>
<path d="M5.82979 13.7438C5.64447 13.9291 5.64447 14.2295 5.82979 14.4147C6.01505 14.6 6.31542 14.6 6.50069 14.4147C6.8048 14.1107 7.29951 14.1107 7.60362 14.4147C7.69625 14.5074 7.81764 14.5537 7.9391 14.5537C8.06055 14.5537 8.18195 14.5074 8.27458 14.4147C8.4599 14.2295 8.4599 13.9291 8.27458 13.7438C7.60059 13.0698 6.50377 13.0697 5.82979 13.7438Z" fill="#929292"/>
<path d="M17.1705 14.4147C17.3558 14.2295 17.3558 13.9291 17.1705 13.7438C16.4965 13.0698 15.3997 13.0698 14.7257 13.7438C14.5404 13.9291 14.5404 14.2295 14.7257 14.4147C14.911 14.6 15.2114 14.6 15.3966 14.4147C15.7007 14.1107 16.1955 14.1107 16.4996 14.4147C16.5922 14.5073 16.7136 14.5537 16.835 14.5537C16.9565 14.5537 17.0779 14.5073 17.1705 14.4147Z" fill="#929292"/>
</svg>
