<svg width="18" height="21" viewBox="0 0 18 21" fill="none" xmlns="http://www.w3.org/2000/svg">
<path d="M16.8352 2.62835H11.8545V0.437358C11.8545 0.193447 11.6568 0 11.417 0H5.85573C5.61174 0 5.41823 0.197652 5.41823 0.437358V2.62835H0.437497C0.193508 2.62835 3.20946e-08 2.826 3.20946e-08 3.06571V5.79499C3.20946e-08 6.0389 0.197715 6.23235 0.437497 6.23235H1.47235V17.3639C1.47235 19.1512 2.92787 20.6063 4.71572 20.6063H12.557C14.3449 20.6063 15.8004 19.1512 15.8004 17.3639V6.23655H16.8352C17.0792 6.23655 17.2727 6.0389 17.2727 5.79919V3.06571C17.2727 2.826 17.075 2.62835 16.8352 2.62835ZM6.29744 0.87892H10.9795V2.63256H6.29744V0.87892ZM14.9212 17.3639C14.9212 18.6676 13.8611 19.7273 12.557 19.7273H4.71572C3.41164 19.7273 2.35155 18.6676 2.35155 17.3639V6.23655H14.9212V17.3639ZM16.3935 5.35763H0.879201V3.50727H16.3977V5.35763H16.3935Z" fill="black"/>
<path d="M4.77051 17.4944C5.01449 17.4944 5.208 17.2967 5.208 17.057V8.91123C5.208 8.66732 5.01029 8.47388 4.77051 8.47388C4.52652 8.47388 4.33301 8.67153 4.33301 8.91123V17.057C4.33301 17.2967 4.53072 17.4944 4.77051 17.4944Z" fill="black"/>
<path d="M8.63647 17.4944C8.88046 17.4944 9.07397 17.2967 9.07397 17.057V8.91123C9.07397 8.66732 8.87625 8.47388 8.63647 8.47388C8.39669 8.47388 8.19897 8.67153 8.19897 8.91123V17.057C8.19897 17.2967 8.39248 17.4944 8.63647 17.4944Z" fill="black"/>
<path d="M12.5023 17.4944C12.7462 17.4944 12.9398 17.2967 12.9398 17.057V8.91123C12.9398 8.66732 12.742 8.47388 12.5023 8.47388C12.2583 8.47388 12.0648 8.67153 12.0648 8.91123V17.057C12.0606 17.2967 12.2583 17.4944 12.5023 17.4944Z" fill="black"/>
</svg>
