<svg width="16" height="22" viewBox="0 0 16 22" fill="none" xmlns="http://www.w3.org/2000/svg">
<path d="M6.94963 15.2247L6.66925 17.8248C6.65538 17.9541 6.69571 18.0839 6.77992 18.1811C6.86413 18.2782 6.98479 18.3337 7.11108 18.3337H8.88888C9.01517 18.3337 9.13583 18.2782 9.22004 18.1811C9.30425 18.084 9.34463 17.9541 9.33071 17.8248L9.05034 15.2247C9.50563 14.8832 9.77775 14.343 9.77775 13.7503C9.77775 12.7392 8.98046 11.917 7.99996 11.917C7.01946 11.917 6.22217 12.7392 6.22217 13.7503C6.22217 14.343 6.49433 14.8832 6.94963 15.2247ZM7.99996 12.8337C8.48996 12.8337 8.88883 13.245 8.88883 13.7503C8.88883 14.1017 8.69525 14.4164 8.38363 14.5721C8.21392 14.6572 8.11454 14.8425 8.13538 15.0354L8.39233 17.417H7.60763L7.86458 15.0354C7.88542 14.8424 7.78604 14.6572 7.61633 14.5721C7.30471 14.4164 7.11113 14.1017 7.11113 13.7503C7.11108 13.245 7.50996 12.8337 7.99996 12.8337Z" fill="black"/>
<path d="M15.5555 8.25H14.2222V6.41665C14.2222 2.87848 11.431 0 8 0C4.569 0 1.77779 2.87848 1.77779 6.41665V8.25H0.444458C0.198792 8.25 0 8.455 0 8.70835V20.1667C0 21.1778 0.797292 22 1.77779 22H14.2223C15.2027 22 16 21.1778 16 20.1667V8.70835C16 8.455 15.8012 8.25 15.5555 8.25ZM2.66667 6.41665C2.66667 3.38379 5.05904 0.916652 8 0.916652C10.941 0.916652 13.3333 3.38379 13.3333 6.41665V8.25H12.4445V6.41665C12.4445 3.88953 10.4505 1.8333 8 1.8333C5.54946 1.8333 3.55554 3.88957 3.55554 6.41665V8.25H2.66667V6.41665ZM11.5555 6.41665V8.25H4.44446V6.41665C4.44446 4.39489 6.0395 2.75 8 2.75C9.9605 2.75 11.5555 4.39489 11.5555 6.41665ZM15.1111 20.1667C15.1111 20.672 14.7123 21.0833 14.2223 21.0833H1.77779C1.28779 21.0833 0.888917 20.672 0.888917 20.1667V9.16665H15.1111V20.1667Z" fill="black"/>
</svg>
