<svg width="25" height="25" viewBox="0 0 25 25" fill="none" xmlns="http://www.w3.org/2000/svg">
<path d="M23.8092 1.19048C22.221 -0.396825 19.6377 -0.396825 18.0494 1.19048L1.73169 17.5078C1.72399 17.5155 1.71947 17.525 1.71268 17.5332C1.70318 17.544 1.69503 17.5558 1.68644 17.5676C1.66245 17.601 1.6439 17.6368 1.62988 17.6757C1.6258 17.6875 1.61992 17.6979 1.61675 17.7096C1.6154 17.7142 1.61268 17.7187 1.61132 17.7232L0.0117648 24.4425C0.00452492 24.4729 0.00271495 24.5036 0.00180997 24.5339C0.00180997 24.5398 0 24.5453 0 24.5511C0.000452492 24.6027 0.0117648 24.6529 0.029412 24.7014C0.0334844 24.7127 0.0380093 24.7226 0.0429867 24.7335C0.0651588 24.7819 0.0927608 24.8285 0.131675 24.8674C0.174662 24.9104 0.225341 24.9434 0.280092 24.9661C0.334844 24.9887 0.393215 25 0.451587 25C0.486429 25 0.521723 24.9959 0.556112 24.9878L7.27562 23.3883C7.28783 23.3855 7.29869 23.3788 7.31046 23.3747C7.32584 23.3697 7.34032 23.3638 7.35525 23.357C7.38783 23.3421 7.41815 23.3236 7.4462 23.3014C7.45706 23.2928 7.46838 23.2865 7.47878 23.277C7.4824 23.2733 7.48693 23.2715 7.49055 23.2679L23.8088 6.9501C25.397 5.36189 25.397 2.77823 23.8092 1.19048ZM23.1694 1.83028C24.2952 2.95651 24.3911 4.7248 23.4635 5.9646L19.035 1.53617C20.2753 0.608586 22.0436 0.704512 23.1694 1.83028ZM20.9296 8.54962L16.4499 4.07006L17.0897 3.43025L21.5694 7.90981L20.9296 8.54962ZM2.24481 22.7543C2.06789 22.5774 1.78191 22.5774 1.60499 22.7543L1.26245 23.0969L2.41812 18.2427L4.41903 18.0205L4.16157 20.3381C4.15976 20.3553 4.16609 20.3711 4.16609 20.3879C4.16609 20.4051 4.15976 20.4204 4.16157 20.4376C4.16338 20.4526 4.17107 20.4648 4.17424 20.4793C4.17967 20.5055 4.18736 20.5295 4.19686 20.5539C4.20863 20.5833 4.22265 20.61 4.23985 20.6358C4.25387 20.6566 4.2679 20.6752 4.2851 20.6933C4.30682 20.7164 4.33035 20.7358 4.35614 20.7539C4.3765 20.768 4.39596 20.7811 4.41858 20.7919C4.44845 20.806 4.47967 20.8141 4.51225 20.8218C4.52944 20.8259 4.54347 20.8354 4.56112 20.8376C4.57741 20.8394 4.5937 20.8403 4.61044 20.8403H4.61089H4.61134H4.6118H4.61225C4.62854 20.8403 4.64528 20.8394 4.66157 20.8376L6.97923 20.5802L6.75706 22.581L1.90228 23.7367L2.24481 23.3941C2.42128 23.2177 2.42128 22.9313 2.24481 22.7543ZM7.92358 20.2752L18.0494 10.1491C18.2264 9.97222 18.2264 9.68625 18.0494 9.50933C17.8725 9.33241 17.5865 9.33241 17.4096 9.50933L7.28376 19.6354L5.12402 19.8752L5.36384 17.7155L15.4906 7.58991C15.6675 7.41299 15.6675 7.12702 15.4906 6.9501C15.3137 6.77318 15.0277 6.77318 14.8508 6.9501L4.72401 17.0757L3.28373 17.2359L15.8101 4.70987L20.2897 9.18943L7.7634 21.7154L7.92358 20.2752ZM22.2092 7.27L17.7295 2.79045L18.3698 2.15019L22.8495 6.62974L22.2092 7.27Z" fill="#5A5A5A"/>
</svg>
