<svg width="28" height="28" viewBox="0 0 28 28" fill="none" xmlns="http://www.w3.org/2000/svg">
<path d="M14 0.990723C6.3 0.990723 0 7.06572 0 14.4907C0 21.9157 6.3 27.9907 14 27.9907C21.7 27.9907 28 21.9157 28 14.4907C28 7.06572 21.7 0.990723 14 0.990723ZM14 25.2907C7.84 25.2907 2.8 20.4307 2.8 14.4907C2.8 8.55072 7.84 3.69072 14 3.69072C20.16 3.69072 25.2 8.55072 25.2 14.4907C25.2 20.4307 20.16 25.2907 14 25.2907Z" fill="black" fill-opacity="0.8"/>
<path d="M14.701 7.74121H12.601V15.8412L19.881 20.1612L21.001 18.4062L14.701 14.7612V7.74121Z" fill="black" fill-opacity="0.8"/>
</svg>
