<svg width="30" height="27" viewBox="0 0 30 27" fill="none" xmlns="http://www.w3.org/2000/svg">
<path d="M25.0935 3.93348C22.3573 1.39697 18.7195 0 14.85 0C10.9806 0 7.34274 1.39697 4.60657 3.93348C1.87051 6.4701 0.363647 9.84262 0.363647 13.4299C0.363647 17.0171 1.87051 20.3897 4.60657 22.9263C7.34274 25.4628 10.9806 26.8597 14.85 26.8597C18.7195 26.8597 22.3573 25.4628 25.0935 22.9263C27.8295 20.3897 29.3364 17.0171 29.3364 13.4299C29.3364 9.84262 27.8295 6.4701 25.0935 3.93348ZM14.85 24.7613C8.11029 24.7613 2.62714 19.6781 2.62714 13.4299C2.62714 7.18167 8.11029 2.09842 14.85 2.09842C21.5898 2.09842 27.0729 7.18167 27.0729 13.4299C27.0729 19.6781 21.5898 24.7613 14.85 24.7613Z" fill="black" fill-opacity="0.8"/>
<path d="M21.2438 14.9921C21.2398 15.0033 20.8309 16.1266 19.828 17.216C18.5518 18.6025 16.9225 19.3056 14.9857 19.3056C13.0348 19.3056 11.353 18.5941 9.98714 17.1912C8.91651 16.0916 8.44389 14.9596 8.44061 14.9517L6.31999 15.6856C6.34376 15.7444 6.91603 17.1436 8.2447 18.5328C10.0412 20.4111 12.3722 21.404 14.9857 21.404C17.612 21.404 19.9033 20.4032 21.612 18.5099C22.8749 17.1106 23.3756 15.7007 23.3963 15.6414L21.2438 14.9921Z" fill="black" fill-opacity="0.8"/>
<path d="M9.87002 11.1285C10.8701 11.1285 11.6808 10.3769 11.6808 9.44973C11.6808 8.52259 10.8701 7.771 9.87002 7.771C8.86994 7.771 8.05922 8.52259 8.05922 9.44973C8.05922 10.3769 8.86994 11.1285 9.87002 11.1285Z" fill="black" fill-opacity="0.8"/>
<path d="M19.83 11.1285C20.83 11.1285 21.6408 10.3769 21.6408 9.44973C21.6408 8.52259 20.83 7.771 19.83 7.771C18.8299 7.771 18.0192 8.52259 18.0192 9.44973C18.0192 10.3769 18.8299 11.1285 19.83 11.1285Z" fill="black" fill-opacity="0.8"/>
</svg>
