<svg width="28" height="23" viewBox="0 0 28 23" fill="none" xmlns="http://www.w3.org/2000/svg">
<path d="M23.6946 11.8294C23.6881 11.8477 23.0389 13.6878 21.4467 15.4725C19.4204 17.7438 16.8337 18.8955 13.7585 18.8955C10.6611 18.8955 7.99097 17.7301 5.82232 15.4319C4.12248 13.6305 3.37211 11.7762 3.36689 11.7632L9.32217e-08 12.9654C0.0377345 13.0619 0.946324 15.3538 3.05585 17.6295C5.90812 20.7065 9.60906 22.333 13.7585 22.333C17.9283 22.333 21.5663 20.6936 24.2791 17.5922C26.2842 15.2998 27.0791 12.9902 27.112 12.893L23.6946 11.8294Z" fill="white"/>
<path d="M5.63647 5.5C7.22429 5.5 8.51147 4.26878 8.51147 2.75C8.51147 1.23122 7.22429 0 5.63647 0C4.04866 0 2.76147 1.23122 2.76147 2.75C2.76147 4.26878 4.04866 5.5 5.63647 5.5Z" fill="white"/>
<path d="M21.4495 5.5C23.0373 5.5 24.3245 4.26878 24.3245 2.75C24.3245 1.23122 23.0373 0 21.4495 0C19.8616 0 18.5745 1.23122 18.5745 2.75C18.5745 4.26878 19.8616 5.5 21.4495 5.5Z" fill="white"/>
</svg>
