<svg width="38" height="38" viewBox="0 0 38 38" fill="none" xmlns="http://www.w3.org/2000/svg">
<g clip-path="url(#clip0)">
<path d="M18.9999 37.9999C25.0792 37.9999 30.4868 35.1424 33.9644 30.7002H23.9574C22.6656 35.0065 21.9446 37.9999 18.9999 37.9999Z" fill="#C42126"/>
<path d="M17.8724 37.9674C17.869 37.9674 17.8659 37.9668 17.8625 37.9668C17.8659 37.9668 17.8693 37.9674 17.8724 37.9674Z" fill="#C42126"/>
<path d="M23.9574 7.29967H33.9647C30.4867 2.85814 25.0791 0 18.9999 0C21.9446 0 22.6656 2.9934 23.9574 7.29967Z" fill="#C42126"/>
<path d="M17.8625 0.0338131C17.8659 0.0338131 17.869 0.0332403 17.8724 0.0332403C17.8693 0.0331585 17.8659 0.0331585 17.8625 0.0338131Z" fill="#C42126"/>
<path d="M33.9651 7.2998H23.9576C25.9773 14.0313 25.9773 23.9698 23.9576 30.7004H33.9642C36.4902 27.4747 38.0001 23.4154 38.0001 19.0002C38.0004 14.5854 36.4905 10.5258 33.9651 7.2998Z" fill="#FFC40C"/>
<path d="M19 38C18.622 38 18.2464 37.9889 17.8732 37.9673C18.2517 37.9883 18.628 38 19 38Z" fill="#C42126"/>
<path d="M17.8732 0.033293C18.2463 0.0110709 18.622 0 19 0C18.628 0 18.2517 0.0122743 17.8732 0.033293Z" fill="#C42126"/>
<path d="M25.355 30.7002H4.03589C7.29483 34.8633 12.2497 37.6348 17.8624 37.9666C17.866 37.9666 17.8693 37.9671 17.8729 37.9671C18.2461 37.9887 18.6218 37.9999 18.9998 37.9999C21.9446 37.9999 24.0629 35.0065 25.355 30.7002Z" fill="#D32030"/>
<path d="M4.03589 7.29967H25.355C24.0629 2.9934 21.9446 0 18.9999 0C18.6218 0 18.2462 0.0110709 17.873 0.033293C17.8694 0.033293 17.8661 0.0338546 17.8625 0.0338546C12.2497 0.365421 7.29483 3.13716 4.03589 7.29967Z" fill="#D32030"/>
<path d="M-3.05176e-05 19.0002C-3.05176e-05 23.4154 1.50987 27.4747 4.03588 30.7004H25.355C27.3747 23.9695 27.3747 14.0309 25.355 7.2998H4.03588C1.50987 10.5258 -3.05176e-05 14.5854 -3.05176e-05 19.0002Z" fill="#FFD034"/>
</g>
<defs>
<clipPath id="clip0">
<rect width="38" height="38" fill="white"/>
</clipPath>
</defs>
</svg>
