<svg width="25" height="25" viewBox="0 0 25 25" fill="none" xmlns="http://www.w3.org/2000/svg">
<path d="M24.5889 21.8589H23.2024V17.0495C23.2024 15.973 22.3266 15.0972 21.2501 15.0972H20.6482V10.083C20.6482 9.11943 19.8643 8.3355 18.9007 8.3355H14.0295V4.30444C14.0295 4.07744 13.8455 3.89336 13.6185 3.89336H12.911V3.2793C13.4547 3.10503 13.8494 2.59487 13.8494 1.99409C13.8494 1.36426 13.0479 0.445801 12.8022 0.179346C12.7244 0.094873 12.6148 0.046875 12.5 0.046875C12.3852 0.046875 12.2756 0.094873 12.1978 0.179346C11.9521 0.445801 11.1506 1.36426 11.1506 1.99409C11.1506 2.59482 11.5453 3.10498 12.089 3.2793V3.89341H11.3815C11.1545 3.89341 10.9704 4.07744 10.9704 4.30449V8.33555H6.09922C5.13569 8.33555 4.35176 9.11948 4.35176 10.083V13.6997C4.35176 13.9267 4.53579 14.1107 4.76279 14.1107C4.98979 14.1107 5.17388 13.9267 5.17388 13.6997V10.083C5.17388 9.5728 5.58901 9.15767 6.09922 9.15767H18.9007C19.4109 9.15767 19.8261 9.5728 19.8261 10.083V15.0973H4.76289H3.74985C2.67329 15.0973 1.79756 15.973 1.79756 17.0496V20.4227C1.79756 20.6497 1.98159 20.8338 2.20859 20.8338C2.4356 20.8338 2.61968 20.6498 2.61968 20.4227V17.0496C2.61968 16.4263 3.12666 15.9194 3.74985 15.9194H4.76279H20.2371H21.25C21.8732 15.9194 22.3802 16.4264 22.3802 17.0496V21.859H2.20859H0.411084C0.184082 21.859 0 22.043 0 22.2701C0 23.7497 1.20381 24.9535 2.68345 24.9535H22.3166C23.7962 24.9535 25 23.7497 25 22.2701C25 22.043 24.816 21.8589 24.5889 21.8589ZM11.9727 1.99404C11.9727 1.85259 12.2004 1.47324 12.5 1.09238C12.7996 1.47324 13.0273 1.85259 13.0273 1.99404C13.0273 2.28481 12.7907 2.52134 12.5 2.52134C12.2092 2.52134 11.9727 2.28481 11.9727 1.99404ZM13.2074 8.3355H11.7925V4.71548H13.2074V8.3355ZM22.3166 24.1313H2.68345C1.79829 24.1313 1.05547 23.5103 0.867871 22.6811H2.20864H22.7914H24.1321C23.9445 23.5103 23.2017 24.1313 22.3166 24.1313Z" fill="black"/>
<path d="M18.4434 10.3583C17.8469 10.3485 17.4373 10.7521 17.1078 11.0771C16.8094 11.3712 16.6117 11.5488 16.3985 11.543C16.1982 11.5372 16.0451 11.3636 15.8121 11.0811C15.539 10.7499 15.199 10.3377 14.6159 10.3206C14.0401 10.3035 13.6607 10.6798 13.3261 11.0116C13.0166 11.3185 12.8102 11.5048 12.5538 11.5051C12.5536 11.5051 12.5535 11.5051 12.5533 11.5051C12.3004 11.5051 12.1004 11.3184 11.8013 11.0109C11.4861 10.6869 11.0942 10.2842 10.499 10.2842C10.4953 10.2842 10.4915 10.2842 10.4878 10.2842C9.86641 10.2896 9.46646 10.7274 9.14507 11.0793C8.85714 11.3947 8.66612 11.5863 8.44434 11.5863C8.44395 11.5863 8.44361 11.5863 8.44327 11.5863C8.22115 11.5857 8.03463 11.3937 7.75377 11.0778C7.4481 10.7339 7.06807 10.3062 6.47686 10.3062C6.47462 10.3062 6.47232 10.3062 6.47003 10.3062C6.24302 10.3075 6.06002 10.4926 6.06129 10.7196C6.06256 10.9459 6.2463 11.1284 6.47227 11.1284C6.47369 11.1284 6.4751 11.1284 6.47657 11.1284C6.68384 11.1284 6.86544 11.3159 7.13936 11.624C7.44932 11.9728 7.83497 12.4067 8.44107 12.4085C8.44224 12.4085 8.44337 12.4085 8.44459 12.4085C9.04478 12.4085 9.43702 11.9791 9.75225 11.6339C10.0507 11.3071 10.2496 11.1085 10.4949 11.1064C10.7334 11.1055 10.9226 11.2867 11.2122 11.5843C11.5343 11.9154 11.935 12.3273 12.5534 12.3273C12.5538 12.3273 12.5543 12.3273 12.5546 12.3273C13.1677 12.3268 13.5766 11.9212 13.9052 11.5954C14.1886 11.3144 14.3771 11.1423 14.5814 11.1423C14.585 11.1423 14.5885 11.1424 14.592 11.1424C14.7921 11.1483 14.9451 11.3217 15.178 11.6042C15.4512 11.9354 15.7912 12.3477 16.3745 12.3648C16.9568 12.3833 17.3602 11.983 17.6852 11.6625C17.9922 11.3597 18.1952 11.175 18.4291 11.1804C18.6581 11.1835 18.8434 11.0036 18.8474 10.7766C18.8511 10.5495 18.6705 10.3623 18.4434 10.3583Z" fill="black"/>
<path d="M21.2235 17.1639C20.6095 17.1448 20.2012 17.5511 19.8407 17.9087C19.5436 18.2033 19.2869 18.4579 18.9716 18.46C18.7269 18.4546 18.5514 18.2724 18.2863 17.9759C17.9834 17.6375 17.6065 17.2163 16.9711 17.2051C16.963 17.205 16.955 17.2048 16.947 17.2048C16.3239 17.2048 15.8883 17.6344 15.5374 17.9804C15.2496 18.2642 15.0014 18.5084 14.733 18.5014C14.4971 18.4945 14.3246 18.2994 14.0627 17.9818C13.7688 17.6255 13.4031 17.182 12.7826 17.1638C12.1692 17.1447 11.7603 17.551 11.3998 17.9086C11.1017 18.2042 10.8442 18.4595 10.5274 18.4599C10.5273 18.4599 10.5271 18.4599 10.5269 18.4599C10.235 18.4599 10.0107 18.2511 9.67632 17.9075C9.33648 17.5582 8.91407 17.124 8.27906 17.124C8.2751 17.124 8.27105 17.124 8.26715 17.1241C7.60421 17.1297 7.17291 17.602 6.82628 17.9815C6.50406 18.3343 6.28956 18.5487 6.03096 18.5487C6.03052 18.5487 6.03008 18.5487 6.02965 18.5487C5.77047 18.5479 5.5609 18.3331 5.24644 17.9793C4.91588 17.6074 4.50582 17.1464 3.8709 17.1481C3.6439 17.1494 3.4609 17.3344 3.46216 17.5615C3.46343 17.7877 3.64717 17.9702 3.87315 17.9702C3.87408 17.9703 3.87486 17.9703 3.87564 17.9703C4.12086 17.9668 4.32418 18.1792 4.63204 18.5256C4.96602 18.9014 5.3817 19.3691 6.0274 19.3709C6.02872 19.3709 6.02994 19.3709 6.03131 19.3709C6.67076 19.3708 7.07593 18.9273 7.4334 18.5359C7.767 18.1707 7.99009 17.9487 8.27423 17.9462C8.27574 17.9462 8.2773 17.9462 8.27877 17.9462C8.54737 17.9462 8.76383 18.1485 9.08712 18.4809C9.43443 18.8379 9.86666 19.2821 10.5269 19.2821C10.5273 19.2821 10.5277 19.2821 10.5282 19.2821C11.183 19.2815 11.6242 18.844 11.9787 18.4925C12.3014 18.1724 12.5135 17.9791 12.7586 17.9856C12.9942 17.9925 13.1667 18.1875 13.4285 18.5049C13.7224 18.8613 14.0882 19.305 14.7089 19.3231C15.3288 19.3424 15.746 18.9293 16.1147 18.5658C16.4106 18.274 16.6652 18.0203 16.9565 18.027C17.2197 18.0316 17.4005 18.2189 17.6735 18.5241C17.9719 18.8576 18.3433 19.2727 18.9624 19.2819C18.9646 19.2819 18.9668 19.282 18.969 19.282C19.6238 19.2814 20.065 18.8439 20.4195 18.4924C20.7423 18.1723 20.9551 17.9798 21.1994 17.9855C21.4267 17.9925 21.6157 17.8136 21.6223 17.5867C21.629 17.3599 21.4504 17.1706 21.2235 17.1639Z" fill="black"/>
</svg>
