<svg width="38" height="38" viewBox="0 0 38 38" fill="none" xmlns="http://www.w3.org/2000/svg">
<g clip-path="url(#clip0)">
<path d="M37.9161 20.7769H0.0859375V20.7776H37.9161V20.7769Z" fill="#C42126"/>
<path d="M35.9439 10.4048H2.05591V10.4055H35.9439V10.4048Z" fill="#C42126"/>
<path d="M37.2905 13.8618H0.708649V13.8625H37.2905V13.8618Z" fill="#C42126"/>
<path d="M8.1663 34.6056H29.8343L29.8354 34.604H8.1651L8.1663 34.6056Z" fill="#C42126"/>
<path d="M18.9997 0C18.6265 0 18.2563 0.0135273 17.8888 0.0346234H20.1109C19.7431 0.0135273 19.3729 0 18.9997 0Z" fill="#C42126"/>
<path d="M37.9207 17.3193H0.0784912V17.3201H37.9207V17.3193Z" fill="#C42126"/>
<path d="M24.6157 6.94804H33.6883C32.6107 5.63615 31.3582 4.47484 29.9707 3.4917H23.1579C23.7217 4.4835 24.2065 5.6538 24.6157 6.94804Z" fill="#E7E7E7"/>
<path d="M23.1578 3.4919H29.9705C27.1541 1.49602 23.7728 0.246137 20.111 0.034668H19.526C21.2495 0.251592 22.0412 1.52715 23.1578 3.4919Z" fill="#DC3027"/>
<path d="M37.2915 13.8621C36.9537 12.6573 36.5007 11.5014 35.9439 10.4058H25.5062C25.7177 11.5155 25.8845 12.6746 26.0081 13.8621H37.2915Z" fill="#E7E7E7"/>
<path d="M24.9191 10.4051H35.9435C35.3153 9.16947 34.5606 8.00992 33.6881 6.94824H24.0578C24.3974 8.02316 24.6857 9.18271 24.9191 10.4051Z" fill="#DC3027"/>
<path d="M26.4077 20.7764H37.9142C37.9689 20.1917 37.9998 19.5992 37.9998 19.0004C37.9998 18.4337 37.9701 17.8742 37.9215 17.3198H26.4104C26.4479 18.4694 26.4473 19.6274 26.4077 20.7764Z" fill="#E7E7E7"/>
<path d="M37.9219 17.3191C37.8177 16.132 37.6039 14.977 37.2915 13.8628H25.5234C25.6416 14.9947 25.7196 16.1527 25.7577 17.3191H37.9219Z" fill="#DC3027"/>
<path d="M25.3077 27.6903H35.8942C36.4588 26.5959 36.9189 25.4391 37.264 24.2334H25.8195C25.6935 25.4226 25.5225 26.5815 25.3077 27.6903Z" fill="#E7E7E7"/>
<path d="M37.2641 24.2332C37.583 23.1193 37.8044 21.9643 37.9145 20.7769H26.0491C26.0086 21.9442 25.9282 23.1019 25.8076 24.2332H37.2641Z" fill="#DC3027"/>
<path d="M29.8353 34.6038C31.2429 33.6246 32.513 32.4621 33.6078 31.1475H24.6933C24.2766 32.4471 23.7818 33.6155 23.2079 34.6038H29.8353Z" fill="#E7E7E7"/>
<path d="M24.3577 31.1473H33.6076C34.4902 30.0869 35.2565 28.9273 35.8939 27.6904H25.2298C24.9931 28.9138 24.7019 30.0739 24.3577 31.1473Z" fill="#DC3027"/>
<path d="M18.3113 37.9875C18.2728 37.986 18.2345 37.9839 18.1961 37.9824C18.2345 37.9838 18.2729 37.986 18.3113 37.9875Z" fill="#DC3027"/>
<path d="M18.9999 37.9998C23.028 37.9998 26.7603 36.7425 29.8342 34.605H22.9578C21.7374 36.7076 20.9322 37.9998 18.9999 37.9998Z" fill="#DC3027"/>
<path d="M19.0001 37.9999C18.7693 37.9999 18.5401 37.9945 18.3116 37.9863C18.5425 37.9941 18.772 37.9999 19.0001 37.9999Z" fill="#C42126"/>
<path d="M23.787 3.4917H8.02972C6.64194 4.47484 5.38973 5.63607 4.31177 6.94804H25.2444C24.8352 5.6538 24.3507 4.4835 23.787 3.4917Z" fill="#F3F4F5"/>
<path d="M8.02966 3.4919H23.7869C22.67 1.52715 21.2495 0.251592 19.526 0.034668H17.8889C14.2271 0.246137 10.8457 1.49602 8.02966 3.4919Z" fill="#E73625"/>
<path d="M0.708801 13.8621H26.6073C26.4837 12.6744 26.3169 11.5155 26.1055 10.4058H2.05639C1.49956 11.5015 1.04662 12.6573 0.708801 13.8621Z" fill="#F3F4F5"/>
<path d="M4.31169 6.94824C3.4399 8.00992 2.68452 9.16939 2.05661 10.4052H26.1053C25.8722 9.18295 25.584 8.02348 25.2443 6.94824C25.2443 6.94824 4.31169 6.94824 4.31169 6.94824Z" fill="#E73625"/>
<path d="M0.000274658 19.0002C0.000274658 19.599 0.0314816 20.1915 0.0857928 20.7762H26.8396C26.8792 19.6271 26.8798 18.4694 26.8423 17.3198H0.0785727C0.0299573 17.874 0.000274658 18.4335 0.000274658 19.0002Z" fill="#F3F4F5"/>
<path d="M0.0784912 17.3191H26.8419C26.8038 16.1524 26.7255 14.9947 26.6076 13.8628H0.708486C0.396176 14.9773 0.1823 16.132 0.0784912 17.3191Z" fill="#E73625"/>
<path d="M26.5981 24.2334H0.736145C1.08119 25.4394 1.54167 26.5959 2.10596 27.6903H26.0863C26.3011 26.5818 26.4718 25.4229 26.5981 24.2334Z" fill="#F3F4F5"/>
<path d="M0.735912 24.2332H26.5979C26.7182 23.1019 26.7988 21.9439 26.8393 20.7769H0.0855408C0.195607 21.9646 0.417345 23.1193 0.735912 24.2332Z" fill="#E73625"/>
<path d="M8.16505 34.6038H23.7291C24.303 33.6153 24.798 32.4471 25.2145 31.1475H4.39255C5.48728 32.4621 6.75713 33.6246 8.16505 34.6038Z" fill="#F3F4F5"/>
<path d="M2.1062 27.6904C2.74374 28.9273 3.50987 30.0869 4.39249 31.1473H25.2144C25.5582 30.0739 25.8495 28.9138 26.0862 27.6904H2.1062Z" fill="#E73625"/>
<path d="M18.1961 37.9822C18.2346 37.9834 18.2729 37.9851 18.3113 37.9863C18.54 37.9944 18.7692 37.9998 18.9998 37.9998C20.9322 37.9998 22.5077 36.7077 23.7284 34.605H8.1662C11.0339 36.5995 14.4762 37.8271 18.1961 37.9822Z" fill="#E73625"/>
<path d="M18.607 0.00976562C8.87048 0.207837 0.934778 7.7255 0.080719 17.2881H18.6073V0.00976562H18.607Z" fill="#283991"/>
<path d="M3.80192 10.7651L4.09137 11.6564H5.02918L4.27051 12.2076L4.56028 13.0995L3.80192 12.548L3.04381 13.0995L3.33302 12.2076L2.57458 11.6564H3.5124L3.80192 10.7651Z" fill="#EFEFEF"/>
<path d="M3.80192 13.9141L4.09137 14.8059H5.02918L4.27051 15.357L4.56028 16.249L3.80192 15.6975L3.04381 16.249L3.33302 15.357L2.57458 14.8059H3.5124L3.80192 13.9141Z" fill="#EFEFEF"/>
<path d="M6.95132 6.04053L7.24085 6.93213H8.17834L7.41991 7.48359L7.70943 8.37487L6.95132 7.82405L6.19289 8.37487L6.48242 7.48359L5.72366 6.93213H6.66148L6.95132 6.04053Z" fill="#EFEFEF"/>
<path d="M6.95132 9.18994L7.24085 10.0815H8.17834L7.41991 10.6324L7.70943 11.5243L6.95132 10.9735L6.19289 11.5243L6.48242 10.6324L5.72366 10.0815H6.66148L6.95132 9.18994Z" fill="#EFEFEF"/>
<path d="M6.95132 12.3394L7.24085 13.2313H8.17834L7.41991 13.7818L7.70943 14.6737L6.95132 14.1223L6.19289 14.6737L6.48242 13.7818L5.72366 13.2313H6.66148L6.95132 12.3394Z" fill="#EFEFEF"/>
<path d="M1.41079 14.6738L1.12103 13.7819L1.87946 13.2311H0.942209L0.921191 13.166C0.818264 13.4843 0.725285 13.8065 0.639526 14.1323L0.652763 14.1224L1.41079 14.6738Z" fill="#EFEFEF"/>
<path d="M3.0436 9.94982L3.80172 9.39844L4.56015 9.94982L4.27038 9.05789L5.02881 8.50652H4.091L3.80148 7.61523L3.51195 8.50652H3.16635C3.10217 8.60375 3.04007 8.70154 2.97766 8.80021L3.33289 9.05789L3.0436 9.94982Z" fill="#EFEFEF"/>
<path d="M6.95127 4.67505L7.70939 5.22586L7.41986 4.33458L8.17797 3.7832H7.63646C7.17654 4.12704 6.73283 4.49093 6.30652 4.87488L6.1922 5.22586L6.95127 4.67505Z" fill="#EFEFEF"/>
<path d="M9.34219 3.65113L10.1006 3.09976L10.8587 3.65113L10.5692 2.75921L11.3273 2.20839H10.3898L10.3505 2.08838C10.0328 2.25067 9.71844 2.41954 9.41119 2.59924L9.6314 2.75913L9.34219 3.65113Z" fill="#EFEFEF"/>
<path d="M10.1005 4.46631L10.39 5.35735H11.3275L10.5691 5.90873L10.8586 6.80065L10.1005 6.2492L9.34207 6.80065L9.6316 5.90873L8.87292 5.35735H9.81066L10.1005 4.46631Z" fill="#EFEFEF"/>
<path d="M10.1005 7.61572L10.39 8.50677H11.3275L10.5691 9.05814L10.8586 9.95007L10.1005 9.39861L9.34207 9.95007L9.6316 9.05814L8.87292 8.50677H9.81066L10.1005 7.61572Z" fill="#EFEFEF"/>
<path d="M10.1005 10.7651L10.39 11.6564H11.3275L10.5691 12.2076L10.8586 13.0995L10.1005 12.548L9.34207 13.0995L9.6316 12.2076L8.87292 11.6564H9.81066L10.1005 10.7651Z" fill="#EFEFEF"/>
<path d="M10.1005 13.9141L10.39 14.8059H11.3275L10.5691 15.357L10.8586 16.249L10.1005 15.6975L9.34207 16.249L9.6316 15.357L8.87292 14.8059H9.81066L10.1005 13.9141Z" fill="#EFEFEF"/>
<path d="M13.2501 2.89111L13.5396 3.78272H14.4771L13.719 4.33417L14.0082 5.22546L13.2501 4.67464L12.4914 5.22546L12.7812 4.33417L12.0225 3.78272H12.9603L13.2501 2.89111Z" fill="#EFEFEF"/>
<path d="M13.2501 6.04053L13.5396 6.93213H14.4771L13.719 7.48359L14.0082 8.37487L13.2501 7.82405L12.4914 8.37487L12.7812 7.48359L12.0225 6.93213H12.9603L13.2501 6.04053Z" fill="#EFEFEF"/>
<path d="M13.2501 9.18994L13.5396 10.0815H14.4771L13.719 10.6324L14.0082 11.5243L13.2501 10.9735L12.4914 11.5243L12.7812 10.6324L12.0225 10.0815H12.9603L13.2501 9.18994Z" fill="#EFEFEF"/>
<path d="M13.2501 12.3394L13.5396 13.2313H14.4771L13.719 13.7818L14.0082 14.6737L13.2501 14.1223L12.4914 14.6737L12.7812 13.7818L12.0225 13.2313H12.9603L13.2501 12.3394Z" fill="#EFEFEF"/>
<path d="M16.3994 1.31689L16.6889 2.2085H17.6264L16.868 2.75931L17.1575 3.65124L16.3994 3.09978L15.6407 3.65124L15.9305 2.75931L15.1718 2.2085H16.1093L16.3994 1.31689Z" fill="#EFEFEF"/>
<path d="M16.3994 4.46631L16.6889 5.35735H17.6264L16.868 5.90873L17.1575 6.80065L16.3994 6.2492L15.6407 6.80065L15.9305 5.90873L15.1718 5.35735H16.1093L16.3994 4.46631Z" fill="#EFEFEF"/>
<path d="M16.3994 7.61572L16.6889 8.50677H17.6264L16.868 9.05814L17.1575 9.95007L16.3994 9.39861L15.6407 9.95007L15.9305 9.05814L15.1718 8.50677H16.1093L16.3994 7.61572Z" fill="#EFEFEF"/>
<path d="M16.3994 10.7651L16.6889 11.6564H17.6264L16.868 12.2076L17.1575 13.0995L16.3994 12.548L15.6407 13.0995L15.9305 12.2076L15.1718 11.6564H16.1093L16.3994 10.7651Z" fill="#EFEFEF"/>
<path d="M16.3994 13.9141L16.6889 14.8059H17.6264L16.868 15.357L17.1575 16.249L16.3994 15.6975L15.6407 16.249L15.9305 15.357L15.1718 14.8059H16.1093L16.3994 13.9141Z" fill="#EFEFEF"/>
</g>
<defs>
<clipPath id="clip0">
<rect width="38" height="38" fill="white"/>
</clipPath>
</defs>
</svg>
